<svg xmlns="http://www.w3.org/2000/svg" xmlns:xlink="http://www.w3.org/1999/xlink" width="48" zoomAndPan="magnify" viewBox="0 0 36 36.000001" height="48" preserveAspectRatio="xMidYMid meet" version="1.0"><defs><clipPath id="50b9120ba2"><path d="M 0.488281 0 L 35.511719 0 L 35.511719 21 L 0.488281 21 Z M 0.488281 0 " clip-rule="nonzero"/></clipPath><clipPath id="b5a27a0b89"><path d="M 0.488281 15 L 35.511719 15 L 35.511719 35.027344 L 0.488281 35.027344 Z M 0.488281 15 " clip-rule="nonzero"/></clipPath><clipPath id="2b1a2e589b"><path d="M 0.488281 18 L 13 18 L 13 22 L 0.488281 22 Z M 0.488281 18 " clip-rule="nonzero"/></clipPath><clipPath id="9374f9ae63"><path d="M 0.488281 0 L 23 0 L 23 18 L 0.488281 18 Z M 0.488281 0 " clip-rule="nonzero"/></clipPath></defs><g clip-path="url(#50b9120ba2)"><path fill="#0bb288" d="M 12.351562 15.808594 C 12.871094 15.808594 13.328125 16.152344 13.476562 16.652344 L 13.71875 17.457031 L 15.796875 9.535156 C 15.9375 9.003906 16.425781 8.644531 16.972656 8.660156 C 17.519531 8.679688 17.984375 9.074219 18.085938 9.613281 L 20.214844 20.695312 L 20.921875 16.378906 C 21.015625 15.8125 21.503906 15.394531 22.082031 15.394531 L 35.511719 15.394531 L 35.511719 13.457031 C 35.511719 11.765625 34.128906 10.382812 32.4375 10.382812 L 25.132812 10.382812 L 25.132812 3.074219 C 25.132812 1.382812 23.75 0 22.058594 0 L 13.945312 0 C 12.253906 0 10.867188 1.382812 10.867188 3.074219 L 10.867188 10.382812 L 3.5625 10.382812 C 1.871094 10.382812 0.488281 11.765625 0.488281 13.457031 L 0.488281 15.808594 Z M 12.351562 15.808594 " fill-opacity="1" fill-rule="nonzero"/></g><g clip-path="url(#b5a27a0b89)"><path fill="#0bb288" d="M 23.078125 17.746094 L 21.46875 27.601562 C 21.375 28.160156 20.894531 28.578125 20.324219 28.585938 C 20.320312 28.585938 20.3125 28.585938 20.308594 28.585938 C 19.746094 28.585938 19.261719 28.183594 19.15625 27.632812 L 16.757812 15.136719 L 14.921875 22.117188 C 14.789062 22.628906 14.332031 22.984375 13.804688 22.996094 C 13.28125 23.007812 12.808594 22.660156 12.660156 22.152344 L 11.472656 18.160156 L 0.488281 18.160156 L 0.488281 21.570312 C 0.488281 23.261719 1.871094 24.644531 3.5625 24.644531 L 10.867188 24.644531 L 10.867188 31.953125 C 10.867188 33.644531 12.253906 35.027344 13.945312 35.027344 L 22.058594 35.027344 C 23.75 35.027344 25.132812 33.644531 25.132812 31.953125 L 25.132812 24.648438 L 32.4375 24.648438 C 34.128906 24.648438 35.515625 23.261719 35.515625 21.570312 L 35.515625 17.746094 Z M 23.078125 17.746094 " fill-opacity="1" fill-rule="nonzero"/></g><g clip-path="url(#2b1a2e589b)"><path fill="#e8bd70" d="M 11.472656 18.160156 L 0.488281 18.160156 L 0.488281 21.113281 C 4.058594 22.332031 8.257812 22.105469 12.121094 20.332031 Z M 11.472656 18.160156 " fill-opacity="1" fill-rule="nonzero"/></g><g clip-path="url(#9374f9ae63)"><path fill="#e8bd70" d="M 0.488281 13.457031 L 0.488281 15.808594 L 12.351562 15.808594 C 12.871094 15.808594 13.328125 16.152344 13.476562 16.652344 L 13.71875 17.457031 L 15.796875 9.535156 C 15.9375 9.003906 16.425781 8.644531 16.972656 8.660156 C 17.519531 8.679688 17.984375 9.074219 18.085938 9.613281 L 19.058594 14.675781 C 22.320312 10.199219 23.078125 4.546875 20.789062 0 L 13.945312 0 C 12.253906 0 10.867188 1.382812 10.867188 3.074219 L 10.867188 10.382812 L 3.5625 10.382812 C 1.871094 10.382812 0.488281 11.765625 0.488281 13.457031 Z M 0.488281 13.457031 " fill-opacity="1" fill-rule="nonzero"/></g><path fill="#e8bd70" d="M 16.035156 17.875 C 16.40625 17.570312 16.761719 17.253906 17.097656 16.929688 L 16.757812 15.136719 Z M 16.035156 17.875 " fill-opacity="1" fill-rule="nonzero"/></svg>