<svg xmlns="http://www.w3.org/2000/svg" xmlns:xlink="http://www.w3.org/1999/xlink" width="160" zoomAndPan="magnify" viewBox="0 0 120 119.999999" height="160" preserveAspectRatio="xMidYMid meet" version="1.0"><rect x="-12" width="144" fill="#ffffff" y="-12" height="143.999998" fill-opacity="1"/><rect x="-12" width="144" fill="#f8f9fa" y="-12" height="143.999998" fill-opacity="1"/><path fill="#0bb288" d="M 40.648438 54.164062 C 42.429688 54.164062 44 55.335938 44.507812 57.042969 L 45.328125 59.808594 L 52.453125 32.671875 C 52.933594 30.851562 54.601562 29.609375 56.480469 29.667969 C 58.359375 29.734375 59.945312 31.085938 60.300781 32.933594 L 67.589844 70.902344 L 70.007812 56.117188 C 70.328125 54.171875 72.007812 52.738281 73.980469 52.738281 L 120 52.738281 L 120 46.101562 C 120 40.308594 115.257812 35.5625 109.460938 35.5625 L 84.4375 35.5625 L 84.4375 10.539062 C 84.4375 4.742188 79.695312 0 73.898438 0 L 46.105469 0 C 40.308594 0 35.566406 4.742188 35.566406 10.539062 L 35.566406 35.566406 L 10.539062 35.566406 C 4.742188 35.566406 0 40.308594 0 46.105469 L 0 54.164062 Z M 40.648438 54.164062 " fill-opacity="1" fill-rule="nonzero"/><path fill="#0bb288" d="M 77.402344 60.792969 L 71.878906 94.554688 C 71.566406 96.480469 69.914062 97.902344 67.960938 97.929688 C 67.941406 97.929688 67.925781 97.929688 67.90625 97.929688 C 65.980469 97.929688 64.320312 96.5625 63.957031 94.664062 L 55.738281 51.863281 L 49.457031 75.773438 C 49 77.523438 47.433594 78.75 45.628906 78.777344 C 43.828125 78.820312 42.21875 77.628906 41.707031 75.898438 L 37.644531 62.214844 L 0 62.214844 L 0 73.898438 C 0 79.691406 4.742188 84.4375 10.539062 84.4375 L 35.566406 84.4375 L 35.566406 109.464844 C 35.566406 115.257812 40.308594 120 46.105469 120 L 73.898438 120 C 79.695312 120 84.4375 115.257812 84.4375 109.464844 L 84.4375 84.4375 L 109.464844 84.4375 C 115.257812 84.4375 120 79.695312 120 73.898438 L 120 60.792969 Z M 77.402344 60.792969 " fill-opacity="1" fill-rule="nonzero"/><path fill="#e8bd70" d="M 37.644531 62.214844 L 0 62.214844 L 0 72.335938 C 12.242188 76.511719 26.621094 75.734375 39.851562 69.660156 Z M 37.644531 62.214844 " fill-opacity="1" fill-rule="nonzero"/><path fill="#e8bd70" d="M 0 46.105469 L 0 54.164062 L 40.648438 54.164062 C 42.429688 54.164062 44 55.335938 44.507812 57.042969 L 45.328125 59.808594 L 52.453125 32.671875 C 52.933594 30.851562 54.601562 29.609375 56.480469 29.667969 C 58.359375 29.734375 59.945312 31.085938 60.300781 32.933594 L 63.628906 50.277344 C 74.800781 34.9375 77.402344 15.582031 69.554688 0 L 46.105469 0 C 40.308594 0 35.566406 4.742188 35.566406 10.539062 L 35.566406 35.566406 L 10.539062 35.566406 C 4.742188 35.566406 0 40.308594 0 46.105469 Z M 0 46.105469 " fill-opacity="1" fill-rule="nonzero"/><path fill="#e8bd70" d="M 53.273438 61.242188 C 54.542969 60.199219 55.757812 59.117188 56.914062 57.996094 L 55.738281 51.863281 Z M 53.273438 61.242188 " fill-opacity="1" fill-rule="nonzero"/></svg>