<svg xmlns="http://www.w3.org/2000/svg" xmlns:xlink="http://www.w3.org/1999/xlink" width="830" zoomAndPan="magnify" viewBox="0 0 622.5 607.499987" height="810" preserveAspectRatio="xMidYMid meet" version="1.0"><defs><clipPath id="16bc158cd5"><path d="M 515 403 L 621.996094 403 L 621.996094 494 L 515 494 Z M 515 403 " clip-rule="nonzero"/></clipPath><clipPath id="41cb7e15e1"><path d="M 516 404 L 621.996094 404 L 621.996094 494 L 516 494 Z M 516 404 " clip-rule="nonzero"/></clipPath><clipPath id="72c9d3d0a8"><path d="M 514 402 L 621.996094 402 L 621.996094 495 L 514 495 Z M 514 402 " clip-rule="nonzero"/></clipPath><clipPath id="df1663bbd0"><path d="M 136 581 L 210 581 L 210 607 L 136 607 Z M 136 581 " clip-rule="nonzero"/></clipPath><clipPath id="55dbd226f7"><path d="M 17 570 L 89 570 L 89 607 L 17 607 Z M 17 570 " clip-rule="nonzero"/></clipPath><clipPath id="f8ec741df0"><path d="M 269 444 L 526 444 L 526 607 L 269 607 Z M 269 444 " clip-rule="nonzero"/></clipPath><clipPath id="12c1038bba"><path d="M 269 527 L 320 527 L 320 607 L 269 607 Z M 269 527 " clip-rule="nonzero"/></clipPath><clipPath id="72f8ff1421"><path d="M 268 444 L 527 444 L 527 607 L 268 607 Z M 268 444 " clip-rule="nonzero"/></clipPath><clipPath id="f6fcec0840"><path d="M 328 521 L 467 521 L 467 607 L 328 607 Z M 328 521 " clip-rule="nonzero"/></clipPath><clipPath id="36bdd10b69"><path d="M 327 520 L 468 520 L 468 607 L 327 607 Z M 327 520 " clip-rule="nonzero"/></clipPath></defs><path fill="#eef4ff" d="M 594.441406 370.570312 C 588.957031 405.578125 572.75 441.0625 542.359375 459.398438 C 520.191406 472.855469 493.136719 475.476562 467.152344 475.476562 C 441.171875 475.476562 415.070312 473.09375 389.445312 477.738281 C 372.28125 480.835938 352.257812 485.121094 341.773438 498.933594 C 324.25 522.035156 301.488281 543.230469 273.003906 548.46875 C 244.515625 553.710938 215.078125 549.542969 186.59375 544.421875 C 159.421875 539.65625 131.648438 533.824219 108.289062 519.175781 C 84.929688 504.53125 66.335938 479.167969 67.289062 451.660156 C 68.484375 413.914062 104.355469 383.546875 104.59375 345.800781 C 104.953125 307.578125 70.03125 279.710938 51.199219 246.488281 C 30.105469 208.980469 30.105469 160.875 50.960938 123.484375 C 71.820312 86.09375 112.9375 60.96875 155.726562 59.300781 C 220.917969 56.800781 277.292969 103.953125 341.054688 118.125 C 368.828125 124.316406 397.550781 124.078125 425.4375 129.4375 C 478.714844 139.796875 527.460938 171.472656 558.6875 215.886719 C 589.792969 260.304688 602.902344 316.984375 594.441406 370.570312 Z M 594.441406 370.570312 " fill-opacity="1" fill-rule="nonzero"/><path stroke-linecap="round" transform="matrix(1.191839, 0, 0, 1.190773, -100.996656, -111.337235)" fill-opacity="1" fill="#ffffff" fill-rule="nonzero" stroke-linejoin="round" d="M 368.401099 381.298972 C 354.799482 381.298972 343.800198 370.201267 343.800198 356.699003 L 343.800198 157.199453 C 343.800198 143.598776 354.901084 132.599484 368.401099 132.599484 L 567.800811 132.599484 C 581.399151 132.599484 592.398435 143.70047 592.398435 157.199453 L 592.398435 356.60059 C 592.398435 370.201267 581.300826 381.200559 567.800811 381.200559 L 368.401099 381.200559 Z M 368.401099 381.298972 " stroke="#112544" stroke-width="1.5" stroke-opacity="1" stroke-miterlimit="10"/><path stroke-linecap="round" transform="matrix(1.191839, 0, 0, 1.190773, -100.996656, -111.337235)" fill-opacity="1" fill="#e1e5ff" fill-rule="nonzero" stroke-linejoin="round" d="M 580.399514 157.199453 L 580.399514 356.60059 C 580.399514 363.601035 574.699944 369.200734 567.800811 369.200734 L 368.401099 369.200734 C 361.400363 369.200734 355.799119 363.499341 355.799119 356.60059 L 355.799119 157.199453 C 355.799119 150.199008 361.498688 144.599309 368.401099 144.599309 L 567.800811 144.599309 C 574.801547 144.500896 580.399514 150.199008 580.399514 157.199453 Z M 580.399514 157.199453 " stroke="#112544" stroke-width="1.5" stroke-opacity="1" stroke-miterlimit="10"/><path fill="#ccd2ff" d="M 565.359375 266.613281 L 565.359375 302.097656 C 565.359375 305.433594 562.621094 308.171875 559.28125 308.171875 L 348.683594 308.171875 C 345.347656 308.171875 342.605469 305.433594 342.605469 302.097656 L 342.605469 266.613281 C 342.605469 263.28125 345.347656 260.542969 348.683594 260.542969 L 559.28125 260.542969 C 562.621094 260.660156 565.359375 263.28125 565.359375 266.613281 Z M 565.359375 266.613281 " fill-opacity="1" fill-rule="nonzero"/><path stroke-linecap="round" transform="matrix(1.191839, 0, 0, 1.190773, -100.996656, -111.337235)" fill-opacity="1" fill="#ffffff" fill-rule="nonzero" stroke-linejoin="round" d="M 562.900951 313.298871 L 562.900951 343.101607 C 562.900951 345.899817 560.600147 348.199401 557.801164 348.199401 L 381.101405 348.199401 C 378.299144 348.199401 376.001618 345.899817 376.001618 343.101607 L 376.001618 313.298871 C 376.001618 310.500661 378.299144 308.201077 381.101405 308.201077 L 557.801164 308.201077 C 560.600147 308.201077 562.900951 310.500661 562.900951 313.298871 Z M 562.900951 313.298871 " stroke="#112544" stroke-width="1.5" stroke-opacity="1" stroke-miterlimit="10"/><path fill="#ccd2ff" d="M 565.359375 196.835938 L 565.359375 232.320312 C 565.359375 235.652344 562.621094 238.394531 559.28125 238.394531 L 348.683594 238.394531 C 345.347656 238.394531 342.605469 235.652344 342.605469 232.320312 L 342.605469 196.835938 C 342.605469 193.5 345.347656 190.761719 348.683594 190.761719 L 559.28125 190.761719 C 562.621094 190.761719 565.359375 193.382812 565.359375 196.835938 Z M 565.359375 196.835938 " fill-opacity="1" fill-rule="nonzero"/><path stroke-linecap="round" transform="matrix(1.191839, 0, 0, 1.190773, -100.996656, -111.337235)" fill-opacity="1" fill="#ffffff" fill-rule="nonzero" stroke-linejoin="round" d="M 562.900951 254.598798 L 562.900951 284.401534 C 562.900951 287.199744 560.600147 289.499327 557.801164 289.499327 L 381.101405 289.499327 C 378.299144 289.499327 376.001618 287.199744 376.001618 284.401534 L 376.001618 254.598798 C 376.001618 251.800588 378.299144 249.501004 381.101405 249.501004 L 557.801164 249.501004 C 560.600147 249.501004 562.900951 251.800588 562.900951 254.598798 Z M 562.900951 254.598798 " stroke="#112544" stroke-width="1.5" stroke-opacity="1" stroke-miterlimit="10"/><path fill="#ccd2ff" d="M 496.113281 127.175781 C 496.113281 151.585938 476.332031 171.472656 451.777344 171.472656 C 427.34375 171.472656 407.441406 151.703125 407.441406 127.175781 C 407.441406 102.644531 427.226562 82.878906 451.777344 82.878906 C 476.210938 82.878906 496.113281 102.765625 496.113281 127.175781 Z M 496.113281 127.175781 " fill-opacity="1" fill-rule="nonzero"/><path stroke-linecap="round" transform="matrix(1.191839, 0, 0, 1.190773, -100.996656, -111.337235)" fill-opacity="1" fill="#ffffff" fill-rule="nonzero" stroke-linejoin="round" d="M 505.298921 196.200524 C 505.298921 216.699952 488.698392 233.400638 468.099316 233.400638 C 447.50024 233.400638 430.899712 216.798365 430.899712 196.200524 C 430.899712 175.599403 447.50024 159.000411 468.099316 159.000411 C 488.698392 159.000411 505.298921 175.599403 505.298921 196.200524 Z M 505.298921 196.200524 " stroke="#112544" stroke-width="1.5" stroke-opacity="1" stroke-miterlimit="10"/><path fill="#efa130" d="M 467.035156 105.621094 C 467.035156 111.21875 462.503906 115.742188 456.902344 115.742188 C 453.683594 115.742188 450.824219 114.195312 448.917969 111.933594 C 447.488281 110.265625 446.652344 108.003906 446.652344 105.621094 C 446.652344 100.023438 451.183594 95.5 456.785156 95.5 C 457.855469 95.5 458.929688 95.617188 459.882812 95.976562 C 464.054688 97.285156 467.035156 101.097656 467.035156 105.621094 Z M 467.035156 105.621094 " fill-opacity="1" fill-rule="nonzero"/><path fill="#ffc25e" d="M 462.148438 102.289062 C 462.148438 107.882812 457.617188 112.410156 452.015625 112.410156 C 450.945312 112.410156 449.871094 112.289062 448.917969 111.933594 C 447.488281 110.265625 446.652344 108.003906 446.652344 105.621094 C 446.652344 100.023438 451.183594 95.5 456.785156 95.5 C 457.855469 95.5 458.929688 95.617188 459.882812 95.976562 C 461.3125 97.761719 462.148438 99.90625 462.148438 102.289062 Z M 462.148438 102.289062 " fill-opacity="1" fill-rule="nonzero"/><path stroke-linecap="round" transform="matrix(1.191839, 0, 0, 1.190773, -100.996656, -111.337235)" fill="none" stroke-linejoin="round" d="M 476.601147 182.199635 C 476.601147 186.900496 472.799249 190.699237 468.099316 190.699237 C 463.399384 190.699237 459.600764 186.900496 459.600764 182.199635 C 459.600764 177.498774 463.399384 173.700032 468.099316 173.700032 C 472.799249 173.700032 476.601147 177.498774 476.601147 182.199635 Z M 476.601147 182.199635 " stroke="#112544" stroke-width="1.5" stroke-opacity="1" stroke-miterlimit="10"/><path fill="#efa130" d="M 479.546875 145.394531 L 434.140625 145.394531 C 432.589844 145.394531 431.398438 144.082031 431.515625 142.535156 C 431.515625 142.058594 431.636719 141.582031 431.753906 141.226562 C 433.78125 129.316406 444.269531 120.148438 456.785156 120.148438 C 459.882812 120.148438 462.863281 120.746094 465.605469 121.695312 C 474.421875 124.910156 480.976562 132.890625 482.050781 142.535156 C 482.289062 143.964844 481.097656 145.394531 479.546875 145.394531 Z M 479.546875 145.394531 " fill-opacity="1" fill-rule="nonzero"/><path fill="#ffc25e" d="M 472.160156 141.105469 L 431.753906 141.105469 C 433.78125 129.199219 444.269531 120.03125 456.785156 120.03125 C 459.882812 120.03125 462.863281 120.625 465.605469 121.578125 C 470.488281 125.625 473.828125 131.460938 474.660156 138.128906 C 474.898438 139.796875 473.707031 141.105469 472.160156 141.105469 Z M 472.160156 141.105469 " fill-opacity="1" fill-rule="nonzero"/><path stroke-linecap="round" transform="matrix(1.191839, 0, 0, 1.190773, -100.996656, -111.337235)" fill="none" stroke-linejoin="round" d="M 487.098973 215.601007 C 488.40014 215.601007 489.399777 214.498781 489.301452 213.199729 C 488.000285 202.600649 479.000275 194.399566 468.099316 194.399566 C 457.201635 194.399566 448.201625 202.600649 446.900458 213.199729 C 446.700531 214.498781 447.798493 215.601007 449.099659 215.601007 Z M 487.098973 215.601007 " stroke="#112544" stroke-width="1.5" stroke-opacity="1" stroke-miterlimit="10"/><path fill="#757bff" d="M 383.128906 209.574219 C 383.128906 215.292969 378.480469 219.816406 372.878906 219.816406 C 369.660156 219.816406 366.679688 218.269531 364.773438 215.886719 C 363.34375 214.101562 362.507812 211.839844 362.507812 209.457031 C 362.507812 203.742188 367.15625 199.097656 372.878906 199.097656 C 373.953125 199.097656 375.023438 199.214844 375.976562 199.574219 C 380.148438 201.121094 383.128906 205.050781 383.128906 209.574219 Z M 383.128906 209.574219 " fill-opacity="1" fill-rule="nonzero"/><path fill="#8d95ff" d="M 378.242188 206.242188 C 378.242188 211.957031 373.59375 216.601562 367.992188 216.601562 C 366.917969 216.601562 365.847656 216.484375 364.894531 216.125 C 363.464844 214.339844 362.628906 212.078125 362.628906 209.695312 C 362.628906 203.980469 367.277344 199.335938 372.996094 199.335938 C 374.070312 199.335938 375.144531 199.453125 376.097656 199.8125 C 377.40625 201.480469 378.242188 203.742188 378.242188 206.242188 Z M 378.242188 206.242188 " fill-opacity="1" fill-rule="nonzero"/><path stroke-linecap="round" transform="matrix(1.191839, 0, 0, 1.190773, -100.996656, -111.337235)" fill="none" stroke-linejoin="round" d="M 406.200486 269.498526 C 406.200486 274.30108 402.300263 278.201515 397.600331 278.201515 C 392.798796 278.201515 389.000175 274.30108 389.000175 269.498526 C 389.000175 264.699252 392.900398 260.90051 397.600331 260.90051 C 402.300263 260.90051 406.200486 264.699252 406.200486 269.498526 Z M 406.200486 269.498526 " stroke="#112544" stroke-width="1.5" stroke-opacity="1" stroke-miterlimit="10"/><path fill="#757bff" d="M 417.453125 209.574219 C 417.453125 215.292969 412.804688 219.816406 407.203125 219.816406 C 403.984375 219.816406 401.007812 218.269531 399.097656 215.886719 C 397.667969 214.101562 396.835938 211.839844 396.835938 209.457031 C 396.835938 203.742188 401.484375 199.097656 407.203125 199.097656 C 408.277344 199.097656 409.347656 199.214844 410.300781 199.574219 C 414.472656 201.121094 417.453125 205.050781 417.453125 209.574219 Z M 417.453125 209.574219 " fill-opacity="1" fill-rule="nonzero"/><path fill="#8d95ff" d="M 412.566406 206.242188 C 412.566406 211.957031 407.917969 216.601562 402.316406 216.601562 C 401.246094 216.601562 400.171875 216.484375 399.21875 216.125 C 397.789062 214.339844 396.953125 212.078125 396.953125 209.695312 C 396.953125 203.980469 401.601562 199.335938 407.324219 199.335938 C 408.394531 199.335938 409.46875 199.453125 410.421875 199.8125 C 411.734375 201.480469 412.566406 203.742188 412.566406 206.242188 Z M 412.566406 206.242188 " fill-opacity="1" fill-rule="nonzero"/><path stroke-linecap="round" transform="matrix(1.191839, 0, 0, 1.190773, -100.996656, -111.337235)" fill="none" stroke-linejoin="round" d="M 434.999862 269.498526 C 434.999862 274.30108 431.09964 278.201515 426.399707 278.201515 C 421.60145 278.201515 417.799552 274.30108 417.799552 269.498526 C 417.799552 264.699252 421.699775 260.90051 426.399707 260.90051 C 431.201242 260.90051 434.999862 264.699252 434.999862 269.498526 Z M 434.999862 269.498526 " stroke="#112544" stroke-width="1.5" stroke-opacity="1" stroke-miterlimit="10"/><path fill="#757bff" d="M 451.898438 209.574219 C 451.898438 215.292969 447.25 219.816406 441.648438 219.816406 C 438.429688 219.816406 435.449219 218.269531 433.542969 215.886719 C 432.113281 214.101562 431.277344 211.839844 431.277344 209.457031 C 431.277344 203.742188 435.925781 199.097656 441.648438 199.097656 C 442.71875 199.097656 443.792969 199.214844 444.746094 199.574219 C 448.917969 201.121094 451.898438 205.050781 451.898438 209.574219 Z M 451.898438 209.574219 " fill-opacity="1" fill-rule="nonzero"/><path fill="#8d95ff" d="M 446.890625 206.242188 C 446.890625 211.957031 442.242188 216.601562 436.640625 216.601562 C 435.570312 216.601562 434.496094 216.484375 433.542969 216.125 C 432.113281 214.339844 431.277344 212.078125 431.277344 209.695312 C 431.277344 203.980469 435.925781 199.335938 441.648438 199.335938 C 442.71875 199.335938 443.792969 199.453125 444.746094 199.8125 C 446.058594 201.480469 446.890625 203.742188 446.890625 206.242188 Z M 446.890625 206.242188 " fill-opacity="1" fill-rule="nonzero"/><path stroke-linecap="round" transform="matrix(1.191839, 0, 0, 1.190773, -100.996656, -111.337235)" fill="none" stroke-linejoin="round" d="M 463.900841 269.498526 C 463.900841 274.30108 460.000618 278.201515 455.300686 278.201515 C 450.499151 278.201515 446.700531 274.30108 446.700531 269.498526 C 446.700531 264.699252 450.600754 260.90051 455.300686 260.90051 C 460.000618 260.90051 463.900841 264.699252 463.900841 269.498526 Z M 463.900841 269.498526 " stroke="#112544" stroke-width="1.5" stroke-opacity="1" stroke-miterlimit="10"/><path fill="#757bff" d="M 486.222656 209.574219 C 486.222656 215.292969 481.574219 219.816406 475.972656 219.816406 C 472.753906 219.816406 469.773438 218.269531 467.867188 215.886719 C 466.4375 214.101562 465.605469 211.839844 465.605469 209.457031 C 465.605469 203.742188 470.25 199.097656 475.972656 199.097656 C 477.046875 199.097656 478.117188 199.214844 479.070312 199.574219 C 483.242188 201.121094 486.222656 205.050781 486.222656 209.574219 Z M 486.222656 209.574219 " fill-opacity="1" fill-rule="nonzero"/><path fill="#8d95ff" d="M 481.335938 206.242188 C 481.335938 211.957031 476.6875 216.601562 471.085938 216.601562 C 470.011719 216.601562 468.941406 216.484375 467.988281 216.125 C 466.558594 214.339844 465.722656 212.078125 465.722656 209.695312 C 465.722656 203.980469 470.371094 199.335938 476.089844 199.335938 C 477.164062 199.335938 478.238281 199.453125 479.191406 199.8125 C 480.5 201.480469 481.335938 203.742188 481.335938 206.242188 Z M 481.335938 206.242188 " fill-opacity="1" fill-rule="nonzero"/><path stroke-linecap="round" transform="matrix(1.191839, 0, 0, 1.190773, -100.996656, -111.337235)" fill="none" stroke-linejoin="round" d="M 492.700218 269.498526 C 492.700218 274.30108 488.799995 278.201515 484.100062 278.201515 C 479.298528 278.201515 475.499907 274.30108 475.499907 269.498526 C 475.499907 264.699252 479.40013 260.90051 484.100062 260.90051 C 488.901597 260.90051 492.700218 264.699252 492.700218 269.498526 Z M 492.700218 269.498526 " stroke="#112544" stroke-width="1.5" stroke-opacity="1" stroke-miterlimit="10"/><path fill="#757bff" d="M 520.667969 209.574219 C 520.667969 215.292969 516.019531 219.816406 510.417969 219.816406 C 507.199219 219.816406 504.21875 218.269531 502.3125 215.886719 C 500.882812 214.101562 500.046875 211.839844 500.046875 209.457031 C 500.046875 203.742188 504.695312 199.097656 510.417969 199.097656 C 511.488281 199.097656 512.5625 199.214844 513.515625 199.574219 C 517.566406 201.121094 520.667969 205.050781 520.667969 209.574219 Z M 520.667969 209.574219 " fill-opacity="1" fill-rule="nonzero"/><path fill="#8d95ff" d="M 515.660156 206.242188 C 515.660156 211.957031 511.011719 216.601562 505.410156 216.601562 C 504.339844 216.601562 503.265625 216.484375 502.3125 216.125 C 500.882812 214.339844 500.046875 212.078125 500.046875 209.695312 C 500.046875 203.980469 504.695312 199.335938 510.417969 199.335938 C 511.488281 199.335938 512.5625 199.453125 513.515625 199.8125 C 514.828125 201.480469 515.660156 203.742188 515.660156 206.242188 Z M 515.660156 206.242188 " fill-opacity="1" fill-rule="nonzero"/><path stroke-linecap="round" transform="matrix(1.191839, 0, 0, 1.190773, -100.996656, -111.337235)" fill="none" stroke-linejoin="round" d="M 521.601197 269.498526 C 521.601197 274.30108 517.700974 278.201515 513.001041 278.201515 C 508.199507 278.201515 504.400886 274.30108 504.400886 269.498526 C 504.400886 264.699252 508.301109 260.90051 513.001041 260.90051 C 517.700974 260.90051 521.601197 264.699252 521.601197 269.498526 Z M 521.601197 269.498526 " stroke="#112544" stroke-width="1.5" stroke-opacity="1" stroke-miterlimit="10"/><path fill="#757bff" d="M 383.128906 279.472656 C 383.128906 285.191406 378.480469 289.714844 372.878906 289.714844 C 369.660156 289.714844 366.679688 288.167969 364.773438 285.785156 C 363.34375 284 362.507812 281.738281 362.507812 279.355469 C 362.507812 273.640625 367.15625 268.996094 372.878906 268.996094 C 373.953125 268.996094 375.023438 269.113281 375.976562 269.472656 C 380.148438 271.019531 383.128906 274.832031 383.128906 279.472656 Z M 383.128906 279.472656 " fill-opacity="1" fill-rule="nonzero"/><path fill="#8d95ff" d="M 378.242188 276.019531 C 378.242188 281.738281 373.59375 286.378906 367.992188 286.378906 C 366.917969 286.378906 365.847656 286.261719 364.894531 285.90625 C 363.464844 284.117188 362.628906 281.855469 362.628906 279.472656 C 362.628906 273.757812 367.277344 269.113281 372.996094 269.113281 C 374.070312 269.113281 375.144531 269.234375 376.097656 269.589844 C 377.40625 271.378906 378.242188 273.640625 378.242188 276.019531 Z M 378.242188 276.019531 " fill-opacity="1" fill-rule="nonzero"/><path stroke-linecap="round" transform="matrix(1.191839, 0, 0, 1.190773, -100.996656, -111.337235)" fill="none" stroke-linejoin="round" d="M 406.200486 328.198599 C 406.200486 333.001153 402.300263 336.901588 397.600331 336.901588 C 392.798796 336.901588 389.000175 333.001153 389.000175 328.198599 C 389.000175 323.399325 392.900398 319.600583 397.600331 319.600583 C 402.300263 319.600583 406.200486 323.399325 406.200486 328.198599 Z M 406.200486 328.198599 " stroke="#112544" stroke-width="1.5" stroke-opacity="1" stroke-miterlimit="10"/><path fill="#757bff" d="M 417.453125 279.472656 C 417.453125 285.191406 412.804688 289.714844 407.203125 289.714844 C 403.984375 289.714844 401.007812 288.167969 399.097656 285.785156 C 397.667969 284 396.835938 281.738281 396.835938 279.355469 C 396.835938 273.640625 401.484375 268.996094 407.203125 268.996094 C 408.277344 268.996094 409.347656 269.113281 410.300781 269.472656 C 414.472656 271.019531 417.453125 274.832031 417.453125 279.472656 Z M 417.453125 279.472656 " fill-opacity="1" fill-rule="nonzero"/><path fill="#8d95ff" d="M 412.566406 276.019531 C 412.566406 281.738281 407.917969 286.378906 402.316406 286.378906 C 401.246094 286.378906 400.171875 286.261719 399.21875 285.90625 C 397.789062 284.117188 396.953125 281.855469 396.953125 279.472656 C 396.953125 273.757812 401.601562 269.113281 407.324219 269.113281 C 408.394531 269.113281 409.46875 269.234375 410.421875 269.589844 C 411.734375 271.378906 412.566406 273.640625 412.566406 276.019531 Z M 412.566406 276.019531 " fill-opacity="1" fill-rule="nonzero"/><path stroke-linecap="round" transform="matrix(1.191839, 0, 0, 1.190773, -100.996656, -111.337235)" fill="none" stroke-linejoin="round" d="M 434.999862 328.198599 C 434.999862 333.001153 431.09964 336.901588 426.399707 336.901588 C 421.60145 336.901588 417.799552 333.001153 417.799552 328.198599 C 417.799552 323.399325 421.699775 319.600583 426.399707 319.600583 C 431.201242 319.600583 434.999862 323.399325 434.999862 328.198599 Z M 434.999862 328.198599 " stroke="#112544" stroke-width="1.5" stroke-opacity="1" stroke-miterlimit="10"/><path fill="#757bff" d="M 451.898438 279.472656 C 451.898438 285.191406 447.25 289.714844 441.648438 289.714844 C 438.429688 289.714844 435.449219 288.167969 433.542969 285.785156 C 432.113281 284 431.277344 281.738281 431.277344 279.355469 C 431.277344 273.640625 435.925781 268.996094 441.648438 268.996094 C 442.71875 268.996094 443.792969 269.113281 444.746094 269.472656 C 448.917969 271.019531 451.898438 274.832031 451.898438 279.472656 Z M 451.898438 279.472656 " fill-opacity="1" fill-rule="nonzero"/><path fill="#8d95ff" d="M 446.890625 276.019531 C 446.890625 281.738281 442.242188 286.378906 436.640625 286.378906 C 435.570312 286.378906 434.496094 286.261719 433.542969 285.90625 C 432.113281 284.117188 431.277344 281.855469 431.277344 279.472656 C 431.277344 273.757812 435.925781 269.113281 441.648438 269.113281 C 442.71875 269.113281 443.792969 269.234375 444.746094 269.589844 C 446.058594 271.378906 446.890625 273.640625 446.890625 276.019531 Z M 446.890625 276.019531 " fill-opacity="1" fill-rule="nonzero"/><path stroke-linecap="round" transform="matrix(1.191839, 0, 0, 1.190773, -100.996656, -111.337235)" fill="none" stroke-linejoin="round" d="M 463.900841 328.198599 C 463.900841 333.001153 460.000618 336.901588 455.300686 336.901588 C 450.499151 336.901588 446.700531 333.001153 446.700531 328.198599 C 446.700531 323.399325 450.600754 319.600583 455.300686 319.600583 C 460.000618 319.600583 463.900841 323.399325 463.900841 328.198599 Z M 463.900841 328.198599 " stroke="#112544" stroke-width="1.5" stroke-opacity="1" stroke-miterlimit="10"/><path fill="#757bff" d="M 486.222656 279.472656 C 486.222656 285.191406 481.574219 289.714844 475.972656 289.714844 C 472.753906 289.714844 469.773438 288.167969 467.867188 285.785156 C 466.4375 284 465.605469 281.738281 465.605469 279.355469 C 465.605469 273.640625 470.25 268.996094 475.972656 268.996094 C 477.046875 268.996094 478.117188 269.113281 479.070312 269.472656 C 483.242188 271.019531 486.222656 274.832031 486.222656 279.472656 Z M 486.222656 279.472656 " fill-opacity="1" fill-rule="nonzero"/><path fill="#8d95ff" d="M 481.335938 276.019531 C 481.335938 281.738281 476.6875 286.378906 471.085938 286.378906 C 470.011719 286.378906 468.941406 286.261719 467.988281 285.90625 C 466.558594 284.117188 465.722656 281.855469 465.722656 279.472656 C 465.722656 273.757812 470.371094 269.113281 476.089844 269.113281 C 477.164062 269.113281 478.238281 269.234375 479.191406 269.589844 C 480.5 271.378906 481.335938 273.640625 481.335938 276.019531 Z M 481.335938 276.019531 " fill-opacity="1" fill-rule="nonzero"/><path stroke-linecap="round" transform="matrix(1.191839, 0, 0, 1.190773, -100.996656, -111.337235)" fill="none" stroke-linejoin="round" d="M 492.700218 328.198599 C 492.700218 333.001153 488.799995 336.901588 484.100062 336.901588 C 479.298528 336.901588 475.499907 333.001153 475.499907 328.198599 C 475.499907 323.399325 479.40013 319.600583 484.100062 319.600583 C 488.901597 319.600583 492.700218 323.399325 492.700218 328.198599 Z M 492.700218 328.198599 " stroke="#112544" stroke-width="1.5" stroke-opacity="1" stroke-miterlimit="10"/><path fill="#757bff" d="M 520.667969 279.472656 C 520.667969 285.191406 516.019531 289.714844 510.417969 289.714844 C 507.199219 289.714844 504.21875 288.167969 502.3125 285.785156 C 500.882812 284 500.046875 281.738281 500.046875 279.355469 C 500.046875 273.640625 504.695312 268.996094 510.417969 268.996094 C 511.488281 268.996094 512.5625 269.113281 513.515625 269.472656 C 517.566406 271.019531 520.667969 274.832031 520.667969 279.472656 Z M 520.667969 279.472656 " fill-opacity="1" fill-rule="nonzero"/><path fill="#8d95ff" d="M 515.660156 276.019531 C 515.660156 281.738281 511.011719 286.378906 505.410156 286.378906 C 504.339844 286.378906 503.265625 286.261719 502.3125 285.90625 C 500.882812 284.117188 500.046875 281.855469 500.046875 279.472656 C 500.046875 273.757812 504.695312 269.113281 510.417969 269.113281 C 511.488281 269.113281 512.5625 269.234375 513.515625 269.589844 C 514.828125 271.378906 515.660156 273.640625 515.660156 276.019531 Z M 515.660156 276.019531 " fill-opacity="1" fill-rule="nonzero"/><path stroke-linecap="round" transform="matrix(1.191839, 0, 0, 1.190773, -100.996656, -111.337235)" fill="none" stroke-linejoin="round" d="M 521.601197 328.198599 C 521.601197 333.001153 517.700974 336.901588 513.001041 336.901588 C 508.199507 336.901588 504.400886 333.001153 504.400886 328.198599 C 504.400886 323.399325 508.301109 319.600583 513.001041 319.600583 C 517.700974 319.600583 521.601197 323.399325 521.601197 328.198599 Z M 521.601197 328.198599 " stroke="#112544" stroke-width="1.5" stroke-opacity="1" stroke-miterlimit="10"/><path fill="#ffffff" d="M 265.613281 12.621094 L 265.613281 79.1875 C 265.613281 85.617188 260.367188 90.855469 253.933594 90.855469 L 171.457031 90.855469 C 165.023438 90.855469 159.777344 85.617188 159.777344 79.1875 L 159.777344 12.621094 C 159.777344 6.191406 165.023438 0.953125 171.457031 0.953125 L 253.933594 0.953125 C 260.488281 0.953125 265.613281 6.191406 265.613281 12.621094 Z M 265.613281 12.621094 " fill-opacity="1" fill-rule="nonzero"/><path fill="#ccd2ff" d="M 265.613281 12.621094 L 265.613281 79.1875 C 265.613281 85.617188 260.367188 90.855469 253.933594 90.855469 L 171.457031 90.855469 C 167.046875 90.855469 163.113281 88.355469 161.207031 84.664062 C 162.757812 85.378906 164.425781 85.734375 166.09375 85.734375 L 248.570312 85.734375 C 255.003906 85.734375 260.25 80.496094 260.25 74.066406 L 260.25 7.621094 C 260.25 5.597656 259.773438 3.808594 258.820312 2.144531 C 262.871094 3.929688 265.613281 7.976562 265.613281 12.621094 Z M 265.613281 12.621094 " fill-opacity="1" fill-rule="nonzero"/><path stroke-linecap="round" transform="matrix(1.191839, 0, 0, 1.190773, -100.996656, -111.337235)" fill="none" stroke-linejoin="round" d="M 307.600231 104.099079 L 307.600231 160.000943 C 307.600231 165.400536 303.198551 169.799597 297.800511 169.799597 L 228.599415 169.799597 C 223.201375 169.799597 218.799695 165.400536 218.799695 160.000943 L 218.799695 104.099079 C 218.799695 98.699486 223.201375 94.300425 228.599415 94.300425 L 297.800511 94.300425 C 303.300153 94.300425 307.600231 98.699486 307.600231 104.099079 Z M 307.600231 104.099079 " stroke="#112544" stroke-width="1.5" stroke-opacity="1" stroke-miterlimit="10"/><g clip-path="url(#16bc158cd5)"><path fill="#ffffff" d="M 621.257812 415.101562 L 621.257812 481.667969 C 621.257812 488.097656 616.011719 493.335938 609.578125 493.335938 L 527.101562 493.335938 C 520.667969 493.335938 515.421875 488.097656 515.421875 481.667969 L 515.421875 415.101562 C 515.421875 408.671875 520.667969 403.433594 527.101562 403.433594 L 609.578125 403.433594 C 616.011719 403.554688 621.257812 408.671875 621.257812 415.101562 Z M 621.257812 415.101562 " fill-opacity="1" fill-rule="nonzero"/></g><g clip-path="url(#41cb7e15e1)"><path fill="#ccd2ff" d="M 621.257812 415.101562 L 621.257812 481.667969 C 621.257812 488.097656 616.011719 493.335938 609.578125 493.335938 L 527.101562 493.335938 C 522.691406 493.335938 518.757812 490.835938 516.851562 487.144531 C 518.402344 487.859375 520.070312 488.214844 521.738281 488.214844 L 604.214844 488.214844 C 610.652344 488.214844 615.894531 482.976562 615.894531 476.546875 L 615.894531 409.984375 C 615.894531 407.957031 615.417969 406.171875 614.464844 404.503906 C 618.515625 406.410156 621.257812 410.460938 621.257812 415.101562 Z M 621.257812 415.101562 " fill-opacity="1" fill-rule="nonzero"/></g><g clip-path="url(#72c9d3d0a8)"><path stroke-linecap="round" transform="matrix(1.191839, 0, 0, 1.190773, -100.996656, -111.337235)" fill="none" stroke-linejoin="round" d="M 606.000052 442.098523 L 606.000052 498.000387 C 606.000052 503.39998 601.598372 507.799041 596.200333 507.799041 L 526.999236 507.799041 C 521.601197 507.799041 517.199517 503.39998 517.199517 498.000387 L 517.199517 442.098523 C 517.199517 436.69893 521.601197 432.299869 526.999236 432.299869 L 596.200333 432.299869 C 601.598372 432.401562 606.000052 436.69893 606.000052 442.098523 Z M 606.000052 442.098523 " stroke="#112544" stroke-width="1.5" stroke-opacity="1" stroke-miterlimit="10"/></g><path stroke-linecap="round" transform="matrix(1.191839, 0, 0, 1.190773, -100.996656, -111.337235)" fill="none" stroke-linejoin="round" d="M 263.301565 169.799597 L 263.301565 227.299032 L 343.698596 227.299032 " stroke="#112544" stroke-width="1.5" stroke-opacity="1" stroke-miterlimit="10"/><path stroke-linecap="round" transform="matrix(1.191839, 0, 0, 1.190773, -100.996656, -111.337235)" fill="none" stroke-linejoin="round" d="M 517.301119 470.500514 L 461.799965 470.500514 L 461.799965 382.000985 " stroke="#112544" stroke-width="1.5" stroke-opacity="1" stroke-miterlimit="10"/><path fill="#e1e5ff" d="M 199.941406 67.160156 C 196.605469 65.136719 194.101562 62.515625 192.195312 59.300781 C 190.40625 55.964844 189.453125 52.511719 189.453125 48.703125 C 189.453125 44.058594 190.644531 39.652344 193.03125 35.605469 C 195.414062 31.554688 198.632812 28.339844 202.683594 25.839844 C 206.734375 23.457031 211.144531 22.148438 215.792969 22.148438 C 220.085938 22.148438 224.019531 23.101562 227.59375 24.886719 C 231.167969 26.671875 234.148438 29.292969 236.292969 32.507812 C 238.4375 35.722656 239.511719 39.414062 239.511719 43.582031 C 239.511719 46.203125 239.152344 48.703125 238.320312 50.964844 C 237.484375 53.347656 236.292969 55.25 234.507812 56.679688 C 232.835938 58.230469 230.574219 58.941406 227.949219 58.941406 C 225.925781 58.941406 224.257812 58.46875 223.0625 57.632812 C 221.871094 56.679688 221.15625 55.609375 220.917969 54.417969 C 219.609375 55.964844 218.058594 57.15625 216.269531 57.992188 C 214.484375 58.707031 212.574219 59.179688 210.550781 59.179688 C 207.214844 59.179688 204.589844 58.109375 202.804688 56.085938 C 200.894531 54.0625 199.941406 51.441406 199.941406 48.226562 C 199.941406 45.128906 200.65625 42.390625 202.089844 40.128906 C 203.519531 37.867188 205.304688 36.082031 207.570312 34.890625 C 209.835938 33.699219 212.21875 33.101562 214.722656 33.101562 C 217.820312 33.101562 220.441406 34.175781 222.707031 36.320312 L 222.945312 35.246094 C 223.0625 34.652344 223.304688 34.292969 223.78125 33.9375 C 224.257812 33.578125 224.734375 33.339844 225.328125 33.339844 C 225.925781 33.339844 226.519531 33.578125 226.878906 33.9375 C 227.355469 34.414062 227.472656 34.890625 227.472656 35.605469 L 227.355469 36.320312 L 225.328125 48.105469 C 225.089844 49.65625 224.851562 50.964844 224.851562 52.15625 C 224.851562 53.347656 225.089844 54.300781 225.6875 55.011719 C 226.164062 55.726562 226.996094 56.203125 228.070312 56.203125 C 230.691406 56.203125 232.597656 55.132812 234.027344 52.871094 C 235.460938 50.609375 236.175781 47.632812 236.175781 43.820312 C 236.175781 40.011719 235.222656 36.675781 233.195312 33.9375 C 231.289062 31.199219 228.664062 29.054688 225.566406 27.746094 C 222.46875 26.316406 219.132812 25.601562 215.792969 25.601562 C 211.742188 25.601562 207.808594 26.671875 204.351562 28.816406 C 200.777344 30.960938 197.917969 33.816406 195.890625 37.390625 C 193.746094 40.960938 192.671875 44.773438 192.671875 48.941406 C 192.671875 52.035156 193.386719 54.894531 194.9375 57.753906 C 196.367188 60.609375 198.511719 62.871094 201.371094 64.539062 C 204.234375 66.324219 207.453125 67.160156 211.382812 67.160156 C 213.886719 67.160156 216.152344 66.921875 217.9375 66.445312 C 219.847656 65.96875 221.992188 65.253906 224.375 64.300781 C 224.613281 64.183594 224.851562 64.183594 225.089844 64.183594 C 225.566406 64.183594 225.925781 64.300781 226.164062 64.660156 C 226.402344 64.898438 226.640625 65.253906 226.640625 65.730469 C 226.640625 65.96875 226.519531 66.324219 226.402344 66.5625 C 226.28125 66.800781 226.042969 67.039062 225.804688 67.160156 C 221.394531 69.304688 216.628906 70.492188 211.382812 70.492188 C 207.09375 70.136719 203.28125 69.183594 199.941406 67.160156 Z M 221.277344 46.203125 L 222.230469 40.367188 C 220.441406 38.460938 218.058594 37.507812 215.199219 37.507812 C 213.410156 37.507812 211.742188 37.867188 210.191406 38.699219 C 208.644531 39.535156 207.332031 40.605469 206.378906 42.152344 C 205.425781 43.703125 204.949219 45.488281 204.949219 47.632812 C 204.949219 50.011719 205.664062 51.796875 206.972656 53.109375 C 208.285156 54.300781 210.074219 54.894531 212.097656 54.894531 C 217.34375 54.894531 220.324219 51.917969 221.277344 46.203125 Z M 221.277344 46.203125 " fill-opacity="1" fill-rule="nonzero"/><path fill="#8d95ff" d="M 198.273438 65.613281 C 194.9375 63.585938 192.433594 60.96875 190.527344 57.753906 C 188.738281 54.417969 187.785156 50.964844 187.785156 47.15625 C 187.785156 42.511719 188.976562 38.105469 191.363281 34.054688 C 193.746094 30.007812 196.964844 26.792969 201.015625 24.292969 C 205.066406 21.910156 209.476562 20.601562 214.125 20.601562 C 218.417969 20.601562 222.347656 21.554688 225.925781 23.339844 C 229.5 25.125 232.480469 27.746094 234.625 30.960938 C 236.769531 34.175781 237.84375 37.867188 237.84375 42.035156 C 237.84375 44.652344 237.484375 47.15625 236.652344 49.417969 C 235.816406 51.796875 234.625 53.703125 232.835938 55.132812 C 231.167969 56.679688 228.90625 57.394531 226.28125 57.394531 C 224.257812 57.394531 222.585938 56.917969 221.394531 56.085938 C 220.203125 55.132812 219.488281 54.0625 219.25 52.871094 C 217.941406 54.417969 216.390625 55.609375 214.601562 56.441406 C 212.816406 57.15625 210.90625 57.632812 208.882812 57.632812 C 205.542969 57.632812 202.921875 56.5625 201.132812 54.539062 C 199.226562 52.511719 198.273438 49.894531 198.273438 46.679688 C 198.273438 43.582031 198.988281 40.84375 200.417969 38.582031 C 201.851562 36.320312 203.636719 34.53125 205.902344 33.339844 C 208.167969 32.152344 210.550781 31.554688 213.054688 31.554688 C 216.152344 31.554688 218.773438 32.628906 221.039062 34.769531 L 221.277344 33.699219 C 221.394531 33.101562 221.632812 32.746094 222.109375 32.390625 C 222.585938 32.03125 223.0625 31.792969 223.660156 31.792969 C 224.257812 31.792969 224.851562 32.03125 225.210938 32.390625 C 225.6875 32.867188 225.804688 33.339844 225.804688 34.054688 L 225.6875 34.769531 L 223.660156 46.558594 C 223.421875 48.105469 223.183594 49.417969 223.183594 50.609375 C 223.183594 51.796875 223.421875 52.75 224.019531 53.464844 C 224.496094 54.179688 225.328125 54.65625 226.402344 54.65625 C 229.023438 54.65625 230.929688 53.585938 232.359375 51.324219 C 233.789062 49.058594 234.507812 46.082031 234.507812 42.273438 C 234.507812 38.460938 233.550781 35.128906 231.527344 32.390625 C 229.621094 29.648438 226.996094 27.507812 223.898438 26.195312 C 220.800781 24.769531 217.460938 24.054688 214.125 24.054688 C 210.074219 24.054688 206.140625 25.125 202.683594 27.269531 C 199.109375 29.410156 196.246094 32.269531 194.222656 35.84375 C 192.078125 39.414062 191.003906 43.226562 191.003906 47.394531 C 191.003906 50.488281 191.71875 53.347656 193.269531 56.203125 C 194.699219 59.0625 196.84375 61.324219 199.703125 62.992188 C 202.566406 64.777344 205.78125 65.613281 209.714844 65.613281 C 212.21875 65.613281 214.484375 65.375 216.269531 64.898438 C 218.179688 64.421875 220.324219 63.707031 222.707031 62.753906 C 222.945312 62.632812 223.183594 62.632812 223.421875 62.632812 C 223.898438 62.632812 224.257812 62.753906 224.496094 63.109375 C 224.734375 63.347656 224.972656 63.707031 224.972656 64.183594 C 224.972656 64.421875 224.851562 64.777344 224.734375 65.015625 C 224.613281 65.253906 224.375 65.492188 224.136719 65.613281 C 219.726562 67.753906 214.960938 68.945312 209.714844 68.945312 C 205.425781 68.589844 201.609375 67.636719 198.273438 65.613281 Z M 219.609375 44.535156 L 220.5625 38.699219 C 218.773438 36.792969 216.390625 35.84375 213.53125 35.84375 C 211.742188 35.84375 210.074219 36.199219 208.523438 37.03125 C 206.972656 37.867188 205.664062 38.9375 204.710938 40.484375 C 203.757812 42.035156 203.28125 43.820312 203.28125 45.964844 C 203.28125 48.34375 203.996094 50.132812 205.304688 51.441406 C 206.617188 52.632812 208.40625 53.226562 210.429688 53.226562 C 215.675781 53.226562 218.65625 50.371094 219.609375 44.535156 Z M 219.609375 44.535156 " fill-opacity="1" fill-rule="nonzero"/><path fill="#e1e5ff" d="M 587.410156 443.445312 L 583.238281 443.445312 L 583.238281 438.441406 C 583.238281 431.417969 577.515625 425.582031 570.367188 425.582031 C 563.335938 425.582031 557.496094 431.296875 557.496094 438.441406 L 557.496094 443.445312 L 554.394531 443.445312 C 552.847656 443.445312 551.65625 444.632812 551.65625 446.183594 L 551.65625 473.808594 C 551.65625 475.355469 552.847656 476.546875 554.394531 476.546875 L 587.410156 476.546875 C 588.957031 476.546875 590.152344 475.355469 590.152344 473.808594 L 590.152344 446.183594 C 590.152344 444.632812 588.957031 443.445312 587.410156 443.445312 Z M 578.828125 443.445312 L 561.902344 443.445312 L 561.902344 438.441406 C 561.902344 433.796875 565.71875 429.988281 570.367188 429.988281 C 575.015625 429.988281 578.828125 433.796875 578.828125 438.441406 Z M 578.828125 443.445312 " fill-opacity="1" fill-rule="nonzero"/><path fill="#fc6054" d="M 584.90625 440.703125 L 580.734375 440.703125 L 580.734375 435.703125 C 580.734375 428.679688 575.015625 422.84375 567.863281 422.84375 C 560.832031 422.84375 554.992188 428.558594 554.992188 435.703125 L 554.992188 440.703125 L 551.894531 440.703125 C 550.34375 440.703125 549.152344 441.894531 549.152344 443.445312 L 549.152344 471.070312 C 549.152344 472.617188 550.34375 473.808594 551.894531 473.808594 L 584.90625 473.808594 C 586.457031 473.808594 587.648438 472.617188 587.648438 471.070312 L 587.648438 443.445312 C 587.648438 442.015625 586.457031 440.703125 584.90625 440.703125 Z M 576.324219 440.703125 L 559.402344 440.703125 L 559.402344 435.703125 C 559.402344 431.058594 563.214844 427.25 567.863281 427.25 C 572.511719 427.25 576.324219 431.058594 576.324219 435.703125 Z M 576.324219 440.703125 " fill-opacity="1" fill-rule="nonzero"/><path fill="#ffffff" d="M 571.320312 463.566406 L 565.480469 463.566406 C 565.121094 463.566406 564.882812 463.210938 565.003906 462.972656 L 566.550781 457.019531 C 565.71875 456.421875 565.242188 455.46875 565.242188 454.398438 C 565.242188 452.613281 566.671875 451.183594 568.460938 451.183594 C 570.246094 451.183594 571.675781 452.613281 571.675781 454.398438 C 571.675781 455.46875 571.082031 456.421875 570.367188 457.019531 L 571.914062 462.972656 C 571.914062 463.210938 571.675781 463.566406 571.320312 463.566406 Z M 571.320312 463.566406 " fill-opacity="1" fill-rule="nonzero"/><path fill="#fcbba4" d="M 173.484375 581.097656 C 173.484375 581.097656 164.785156 594.433594 143.332031 583.121094 L 143.210938 581.453125 L 142.136719 567.285156 L 172.171875 567.285156 L 172.769531 573 Z M 173.484375 581.097656 " fill-opacity="1" fill-rule="nonzero"/><path fill="#f2a07c" d="M 172.769531 573 C 172.410156 572.878906 171.933594 572.878906 171.578125 572.761719 C 168.953125 572.167969 166.332031 571.214844 163.589844 571.09375 C 160.851562 570.976562 157.871094 571.929688 156.558594 574.308594 C 155.726562 575.859375 155.726562 577.761719 154.773438 579.191406 C 153.582031 581.335938 150.839844 582.289062 148.335938 582.40625 C 146.546875 582.40625 144.878906 582.050781 143.210938 581.453125 L 142.136719 567.285156 L 172.171875 567.285156 Z M 172.769531 573 " fill-opacity="1" fill-rule="nonzero"/><path fill="#fcbba4" d="M 60.140625 560.972656 L 58.949219 572.167969 L 58.710938 574.785156 C 58.710938 574.785156 48.9375 584.550781 32.488281 573.476562 C 31.296875 572.640625 29.988281 571.691406 28.792969 570.738281 L 30.941406 555.019531 Z M 60.140625 560.972656 " fill-opacity="1" fill-rule="nonzero"/><path fill="#f2a07c" d="M 60.140625 560.972656 L 58.949219 572.167969 C 55.96875 571.808594 53.109375 570.617188 50.246094 569.546875 C 46.316406 568.238281 41.90625 567.164062 38.210938 569.070312 C 36.066406 570.140625 34.394531 572.046875 32.488281 573.355469 C 31.296875 572.523438 29.988281 571.570312 28.792969 570.617188 L 30.941406 554.898438 Z M 60.140625 560.972656 " fill-opacity="1" fill-rule="nonzero"/><path stroke-linecap="round" transform="matrix(1.191839, 0, 0, 1.190773, -100.996656, -111.337235)" fill="none" stroke-linejoin="round" d="M 230.300436 581.500535 C 230.300436 581.500535 223.001448 592.699935 205.001428 583.1998 L 203.998514 569.900923 L 229.199197 569.900923 Z M 230.300436 581.500535 " stroke="#112544" stroke-width="1.5" stroke-opacity="1" stroke-miterlimit="10"/><g clip-path="url(#df1663bbd0)"><path fill="#112544" d="M 209.359375 607.769531 L 209.359375 607.890625 C 209.359375 608.960938 208.523438 609.792969 207.453125 609.792969 L 139.160156 609.792969 C 138.085938 609.792969 137.25 608.960938 137.25 607.890625 C 137.371094 606.101562 137.371094 602.886719 137.011719 597.054688 C 136.417969 586.097656 143.210938 583.121094 143.210938 583.121094 C 164.664062 594.433594 173.363281 581.097656 173.363281 581.097656 L 182.304688 589.789062 L 199.109375 594.671875 C 205.1875 596.21875 209.359375 601.699219 209.359375 607.769531 Z M 209.359375 607.769531 " fill-opacity="1" fill-rule="nonzero"/></g><path fill="#66d3d8" d="M 201.492188 459.042969 L 191.363281 557.519531 C 190.765625 562.878906 187.070312 567.164062 182.066406 568.714844 C 180.875 569.070312 179.679688 569.1875 178.371094 569.1875 L 136.535156 569.1875 C 128.195312 569.1875 121.878906 561.332031 123.902344 553.234375 L 147.5 453.328125 C 148.695312 448.445312 148.335938 443.324219 146.546875 438.679688 C 127.957031 390.574219 119.613281 348.300781 122.117188 312.339844 L 180.992188 312.339844 L 184.328125 333.179688 L 201.015625 435.824219 C 202.328125 443.445312 202.445312 451.183594 201.492188 459.042969 Z M 201.492188 459.042969 " fill-opacity="1" fill-rule="nonzero"/><path fill="#47b6c3" d="M 179.203125 564.1875 C 180.515625 565.378906 181.46875 566.925781 182.066406 568.476562 C 180.875 568.832031 179.679688 568.949219 178.371094 568.949219 L 136.535156 568.949219 C 128.195312 568.949219 121.878906 561.09375 123.902344 552.996094 L 147.5 453.089844 C 148.695312 448.207031 148.335938 443.085938 146.546875 438.441406 C 127.957031 390.335938 119.613281 348.0625 122.117188 312.101562 L 180.992188 312.101562 L 184.328125 332.941406 C 173.839844 340.085938 161.328125 344.492188 153.339844 354.375 C 141.066406 369.378906 143.925781 391.765625 151.433594 409.746094 C 158.945312 427.605469 170.265625 444.277344 173.839844 463.328125 C 177.179688 481.785156 172.410156 501.671875 160.96875 516.558594 C 156.558594 522.390625 151.078125 527.511719 147.976562 534.0625 C 144.761719 540.609375 144.523438 549.421875 149.886719 554.421875 C 157.511719 561.566406 171.578125 556.925781 179.203125 564.1875 Z M 179.203125 564.1875 " fill-opacity="1" fill-rule="nonzero"/><path stroke-linecap="round" transform="matrix(1.191839, 0, 0, 1.190773, -100.996656, -111.337235)" fill="none" stroke-linejoin="round" d="M 208.498519 474.09915 L 188.699152 557.999511 C 187.099733 564.901543 192.301123 571.400081 199.298581 571.400081 L 234.400587 571.400081 C 239.998553 571.400081 244.698486 567.201127 245.301546 561.601427 L 253.800098 478.898424 C 254.599808 472.399885 254.501483 465.799653 253.498568 459.301115 L 236.70139 355.600058 L 187.29966 355.600058 C 185.100459 385.799727 192.19952 421.300576 207.800411 461.699112 C 209.199903 465.70124 209.501433 469.998608 208.498519 474.09915 Z M 208.498519 474.09915 " stroke="#112544" stroke-width="1.5" stroke-opacity="1" stroke-miterlimit="10"/><path stroke-linecap="round" transform="matrix(1.191839, 0, 0, 1.190773, -100.996656, -111.337235)" fill="none" stroke-linejoin="round" d="M 133.899383 576.199355 C 133.899383 576.199355 124.499518 585.69949 108.800302 572.699133 L 110.599648 559.400256 L 135.200549 564.50133 Z M 133.899383 576.199355 " stroke="#112544" stroke-width="1.5" stroke-opacity="1" stroke-miterlimit="10"/><g clip-path="url(#55dbd226f7)"><path fill="#112544" d="M 88.148438 608.246094 L 88.148438 608.367188 C 87.910156 609.316406 86.957031 610.03125 86.003906 609.792969 L 19.140625 595.980469 C 18.066406 595.742188 17.472656 594.671875 17.710938 593.71875 C 18.1875 592.050781 18.902344 588.835938 19.738281 583.121094 C 21.285156 572.285156 28.675781 570.738281 28.675781 570.738281 C 47.386719 586.21875 58.589844 574.90625 58.589844 574.90625 L 65.621094 585.265625 L 81.117188 593.480469 C 86.480469 596.101562 89.460938 602.171875 88.148438 608.246094 Z M 88.148438 608.246094 " fill-opacity="1" fill-rule="nonzero"/></g><path fill="#66d3d8" d="M 147.976562 312.21875 L 146.429688 324.84375 L 132.367188 438.203125 C 131.171875 447.375 128.789062 456.421875 125.214844 464.996094 L 86.003906 555.972656 C 84.097656 560.378906 79.925781 563.355469 75.039062 563.832031 C 74.679688 563.832031 74.324219 563.832031 73.964844 563.832031 L 24.027344 563.832031 C 14.015625 563.832031 7.816406 552.996094 12.703125 544.421875 L 65.980469 451.539062 C 68.722656 446.660156 70.03125 441.0625 69.914062 435.347656 C 68.601562 397.359375 70.984375 359.613281 89.9375 312.339844 L 147.976562 312.339844 Z M 147.976562 312.21875 " fill-opacity="1" fill-rule="nonzero"/><path fill="#47b6c3" d="M 147.976562 312.21875 L 146.429688 324.84375 C 138.445312 321.269531 129.980469 319.960938 120.207031 322.699219 C 105.90625 326.511719 94.105469 338.296875 90.054688 352.585938 C 85.050781 370.570312 92.199219 389.382812 95.179688 407.839844 C 101.496094 447.015625 87.433594 488.8125 58.710938 516.199219 C 50.007812 524.535156 31.296875 537.394531 40.117188 545.613281 C 45.480469 550.613281 55.015625 546.207031 61.808594 549.183594 C 68.125 551.921875 73.609375 557.28125 75.15625 563.949219 C 74.800781 563.949219 74.441406 563.949219 74.085938 563.949219 L 24.144531 563.949219 C 14.136719 563.949219 7.9375 553.113281 12.824219 544.539062 L 66.097656 451.660156 C 68.839844 446.777344 70.152344 441.179688 70.03125 435.464844 C 68.722656 397.480469 71.105469 359.734375 90.054688 312.457031 L 147.976562 312.457031 Z M 147.976562 312.21875 " fill-opacity="1" fill-rule="nonzero"/><path stroke-linecap="round" transform="matrix(1.191839, 0, 0, 1.190773, -100.996656, -111.337235)" fill="none" stroke-linejoin="round" d="M 104.900079 567.00102 L 146.799615 567.00102 C 151.201295 567.00102 155.101518 564.399637 156.799262 560.400789 L 189.698789 483.999497 C 192.700977 476.798946 194.700251 469.299876 195.699888 461.499005 L 208.800048 355.698471 L 160.099703 355.698471 C 144.200559 395.401555 142.201285 427.198795 143.299247 458.999315 C 143.499175 463.700176 142.29961 468.401037 139.998807 472.599992 L 95.300287 550.598854 C 91.298461 557.901098 96.601453 567.00102 104.900079 567.00102 Z M 104.900079 567.00102 " stroke="#112544" stroke-width="1.5" stroke-opacity="1" stroke-miterlimit="10"/><path fill="#8d95ff" d="M 230.929688 318.414062 L 229.976562 319.007812 C 225.449219 321.507812 219.609375 320.078125 216.867188 315.671875 L 181.589844 259.945312 L 181.351562 289.597656 L 181.113281 312.339844 L 89.9375 312.339844 C 88.625 301.503906 86.835938 286.378906 86.242188 271.257812 C 85.40625 249.585938 86.835938 227.792969 95.539062 218.148438 C 97.800781 215.648438 100.304688 213.386719 102.808594 211.601562 C 120.328125 198.738281 142.855469 199.8125 142.855469 199.8125 L 160.253906 203.859375 L 164.1875 204.8125 C 173.484375 206.957031 182.183594 210.886719 189.929688 216.363281 C 193.386719 218.863281 198.511719 225.175781 204.351562 233.628906 C 216.03125 250.179688 230.335938 274.59375 239.035156 291.382812 C 244.277344 300.910156 240.585938 313.054688 230.929688 318.414062 Z M 230.929688 318.414062 " fill-opacity="1" fill-rule="nonzero"/><path fill="#757bff" d="M 204.472656 233.390625 C 200.539062 230.296875 196.488281 227.320312 192.195312 224.578125 C 185.402344 220.292969 178.011719 216.71875 170.265625 214.101562 C 156.441406 209.457031 141.78125 207.550781 127.242188 208.742188 C 120.328125 209.335938 113.773438 211.363281 106.980469 212.195312 C 104.953125 212.433594 103.761719 212.078125 102.925781 211.363281 C 120.445312 198.5 142.972656 199.574219 142.972656 199.574219 L 160.375 203.621094 L 164.308594 204.574219 C 173.601562 206.71875 182.304688 210.648438 190.050781 216.125 C 193.507812 218.625 198.632812 225.054688 204.472656 233.390625 Z M 204.472656 233.390625 " fill-opacity="1" fill-rule="nonzero"/><path stroke-linecap="round" transform="matrix(1.191839, 0, 0, 1.190773, -100.996656, -111.337235)" fill-opacity="1" fill="#ffffff" fill-rule="nonzero" stroke-linejoin="round" d="M 220.500717 264.800945 L 220.399114 265.299571 C 218.70137 271.299483 213.100126 275.498438 206.800774 275.498438 C 205.499608 275.498438 204.100116 275.301612 202.798949 274.901399 C 199.200256 273.900867 196.201345 271.49959 194.398721 268.199474 C 193.399084 266.398516 192.799302 264.400732 192.700977 262.399668 C 199.498509 261.199029 204.699898 261.199029 204.699898 261.199029 L 219.301152 264.600839 Z M 220.500717 264.800945 " stroke="#112544" stroke-width="1.5" stroke-opacity="1" stroke-miterlimit="10"/><path fill="#757bff" d="M 181.230469 289.476562 L 180.992188 312.21875 L 89.816406 312.21875 C 88.503906 301.382812 86.71875 286.261719 86.121094 271.140625 C 89.222656 268.996094 93.035156 267.804688 96.730469 267.089844 C 102.332031 265.898438 108.289062 265.066406 112.699219 261.375 C 116.15625 258.515625 116.753906 257.207031 118.660156 253.160156 C 119.613281 251.015625 113.773438 243.988281 116.871094 244.464844 C 119.851562 244.941406 126.882812 254.109375 127.359375 256.253906 C 129.027344 263.757812 133.4375 265.421875 138.445312 271.378906 C 145.953125 280.425781 157.035156 286.617188 168.714844 288.167969 C 172.886719 288.761719 177.179688 288.882812 181.230469 289.476562 Z M 181.230469 289.476562 " fill-opacity="1" fill-rule="nonzero"/><path stroke-linecap="round" transform="matrix(1.191839, 0, 0, 1.190773, -100.996656, -111.337235)" fill-opacity="1" fill="#fcbba4" fill-rule="nonzero" stroke-linejoin="round" d="M 285.398458 338.000533 C 279.600564 326.899547 271.298661 312.199926 263.101638 299.501368 C 254.000026 300.200101 245.301546 304.399055 236.999643 311.799713 L 266.500404 358.598374 C 268.801207 362.298703 273.701067 363.601035 277.499688 361.399864 L 278.401 360.901238 C 286.6013 356.400484 289.698536 346.201617 285.398458 338.000533 Z M 285.398458 338.000533 " stroke="#112544" stroke-width="1.5" stroke-opacity="1" stroke-miterlimit="10"/><path stroke-linecap="round" transform="matrix(1.191839, 0, 0, 1.190773, -100.996656, -111.337235)" fill="none" stroke-linejoin="round" d="M 278.499325 360.901238 L 277.699615 361.399864 C 273.900995 363.499341 269.001135 362.298703 266.700331 358.598374 L 237.101245 311.799713 L 236.70139 355.800164 L 160.201305 355.800164 C 157.598972 333.601472 153.800351 291.598805 164.999563 276.699077 C 171.600444 267.900954 183.599365 264.098932 192.700977 262.501361 C 199.498509 261.300723 204.699898 261.300723 204.699898 261.300723 L 219.301152 264.699252 L 220.500717 265.001051 L 222.601593 265.499677 C 230.398761 267.300635 237.701027 270.600751 244.200306 275.199919 C 252.800461 281.399937 274.399174 316.9992 285.398458 338.098946 C 289.698536 346.201617 286.6013 356.400484 278.499325 360.901238 Z M 278.499325 360.901238 " stroke="#112544" stroke-width="1.5" stroke-opacity="1" stroke-miterlimit="10"/><path fill="#efa130" d="M 301.84375 257.683594 C 301.726562 257.445312 301.605469 257.207031 301.605469 257.085938 C 297.910156 249.46875 288.734375 246.371094 281.226562 250.0625 L 114.488281 331.152344 C 98.277344 312.695312 70.390625 306.863281 46.195312 318.652344 C 27.363281 327.820312 15.566406 345.441406 13.417969 364.257812 C 12.347656 374.023438 13.898438 384.144531 18.425781 393.550781 C 31.773438 420.9375 65.980469 431.894531 94.585938 417.960938 C 117.46875 406.886719 129.980469 383.308594 127.359375 360.328125 C 127.359375 359.851562 127.242188 359.375 127.242188 358.898438 L 127.597656 358.78125 L 186.117188 330.320312 L 196.605469 351.753906 C 197.917969 354.492188 201.253906 355.683594 204.113281 354.375 L 219.488281 346.871094 C 222.230469 345.5625 223.421875 342.109375 222.109375 339.371094 L 219.847656 334.605469 L 211.742188 317.816406 L 216.507812 315.554688 L 250 299.242188 L 268.832031 337.703125 C 270.140625 340.441406 273.480469 341.632812 276.21875 340.324219 L 291.59375 332.820312 C 294.335938 331.511719 295.527344 328.175781 294.21875 325.320312 L 291.953125 320.554688 L 275.503906 286.738281 L 280.273438 284.476562 L 294.933594 277.332031 C 301.84375 273.996094 305.0625 265.183594 301.84375 257.683594 Z M 38.804688 359.613281 C 39.519531 358.898438 40.355469 358.304688 41.308594 357.828125 C 43.335938 356.875 45.597656 356.753906 47.625 357.46875 C 49.652344 358.183594 51.320312 359.613281 52.394531 361.636719 L 63.476562 384.5 L 64.90625 387.359375 C 66.933594 391.527344 65.144531 396.410156 61.09375 398.433594 C 56.921875 400.457031 52.035156 398.671875 50.007812 394.621094 L 37.496094 369.019531 C 35.828125 365.6875 36.542969 361.996094 38.804688 359.613281 Z M 38.804688 359.613281 " fill-opacity="1" fill-rule="nonzero"/><path fill="#ffc25e" d="M 301.605469 257.085938 C 297.910156 249.46875 288.734375 246.371094 281.226562 250.0625 L 114.488281 331.152344 C 98.277344 312.695312 70.390625 306.863281 46.195312 318.652344 C 27.363281 327.820312 15.566406 345.441406 13.417969 364.257812 C 14.136719 370.09375 15.683594 375.925781 18.425781 381.523438 C 31.773438 408.910156 65.980469 419.867188 94.585938 405.933594 C 113.414062 396.765625 125.332031 379.140625 127.359375 360.328125 C 127.480469 359.851562 127.480469 359.257812 127.480469 358.78125 C 127.835938 354.851562 127.71875 350.800781 127.121094 346.871094 L 186 318.175781 L 196.488281 339.609375 C 197.796875 342.347656 201.132812 343.539062 203.996094 342.226562 L 219.371094 334.726562 C 219.488281 334.726562 219.488281 334.605469 219.609375 334.605469 L 211.503906 317.816406 L 206.734375 308.054688 L 249.640625 287.09375 L 268.472656 325.558594 C 269.785156 328.296875 273.121094 329.488281 275.863281 328.175781 L 291.238281 320.675781 C 291.355469 320.675781 291.355469 320.554688 291.476562 320.554688 L 275.027344 286.738281 L 270.261719 276.972656 L 294.457031 265.183594 C 297.910156 263.519531 300.414062 260.777344 301.84375 257.445312 C 301.726562 257.5625 301.605469 257.324219 301.605469 257.085938 Z M 63.359375 396.40625 C 62.644531 397.121094 61.925781 397.71875 60.972656 398.195312 C 56.804688 400.21875 51.917969 398.433594 49.890625 394.382812 L 38.804688 371.519531 L 37.375 368.664062 C 35.351562 364.613281 37.019531 359.613281 41.191406 357.589844 C 43.214844 356.636719 45.480469 356.515625 47.507812 357.230469 C 49.53125 357.945312 51.199219 359.375 52.273438 361.398438 L 64.789062 387 C 66.335938 390.335938 65.621094 394.027344 63.359375 396.40625 Z M 63.359375 396.40625 " fill-opacity="1" fill-rule="nonzero"/><path stroke-linecap="round" transform="matrix(1.191839, 0, 0, 1.190773, -100.996656, -111.337235)" fill="none" stroke-linejoin="round" d="M 331.29982 366.799457 L 315.499001 334.500311 L 331.801277 326.601028 C 338.100629 323.501018 340.801287 315.798561 337.700774 309.500129 C 334.600261 303.100004 326.901418 300.49862 320.598789 303.59863 L 180.698779 371.700425 C 167.100439 356.200377 143.699102 351.29941 123.401556 361.199758 C 99.400437 372.79937 89.000935 401.001255 100.200146 424.000372 C 111.399358 446.99949 140.100409 456.201106 164.101528 444.4998 C 183.700967 434.999665 194.198794 414.598651 191.501413 394.899649 L 240.899865 370.801586 L 249.699948 388.801323 C 250.801187 391.100907 253.600171 392.101439 255.9993 390.999214 L 268.899532 384.700782 C 271.200336 383.598556 272.199973 380.698653 271.098734 378.399069 L 262.298651 360.399332 L 294.300143 344.800872 L 310.100962 377.100018 C 311.198924 379.399602 314.001185 380.400134 316.298711 379.301189 L 329.198944 372.999476 C 331.499747 371.998944 332.499384 369.200734 331.29982 366.799457 Z M 135.898656 427.999221 C 132.401566 429.698485 128.301416 428.199327 126.600394 424.800798 L 116.09929 403.300838 C 114.401546 399.899029 115.899363 395.700075 119.301406 394.00081 C 120.99915 393.200384 122.900099 393.098691 124.60112 393.69901 C 126.298864 394.299329 127.698356 395.499968 128.599668 397.199233 L 139.100772 418.699192 C 140.798516 422.101002 139.3007 426.299956 135.898656 427.999221 Z M 135.898656 427.999221 " stroke="#112544" stroke-width="1.5" stroke-opacity="1" stroke-miterlimit="10"/><path fill="#fc6054" d="M 173.484375 169.207031 C 167.882812 170.757812 162.160156 167.542969 160.613281 161.945312 C 160.253906 160.636719 160.136719 159.207031 160.253906 157.894531 C 159.300781 157.777344 158.464844 157.660156 157.511719 157.421875 C 155.84375 162.539062 152.03125 166.828125 146.90625 168.734375 C 147.382812 173.734375 144.285156 178.496094 139.277344 179.925781 C 133.675781 181.472656 127.957031 178.257812 126.40625 172.660156 C 125.570312 169.804688 126.046875 166.945312 127.480469 164.566406 C 125.453125 162.421875 123.902344 159.800781 123.070312 156.824219 C 120.445312 147.179688 126.046875 137.296875 135.582031 134.675781 C 140.589844 133.246094 145.59375 134.082031 149.648438 136.582031 C 151.433594 133.722656 154.296875 131.460938 157.871094 130.390625 C 165.378906 128.367188 173.125 132.652344 175.152344 140.152344 C 175.988281 143.367188 175.75 146.585938 174.554688 149.441406 C 177.535156 150.632812 179.800781 153.132812 180.753906 156.347656 C 182.304688 161.945312 179.085938 167.660156 173.484375 169.207031 Z M 173.484375 169.207031 " fill-opacity="1" fill-rule="nonzero"/><path fill="#e64b38" d="M 151.195312 153.253906 C 151.195312 153.253906 151.078125 159.085938 157.632812 162.539062 L 159.421875 157.421875 C 155.964844 157.183594 153.460938 155.515625 151.195312 153.253906 Z M 151.195312 153.253906 " fill-opacity="1" fill-rule="nonzero"/><path fill="#e64b38" d="M 175.035156 139.558594 C 171.578125 135.511719 165.976562 133.605469 160.492188 135.152344 C 156.917969 136.105469 154.058594 138.367188 152.269531 141.34375 C 148.21875 138.84375 143.09375 138.011719 138.207031 139.441406 C 128.550781 142.058594 122.949219 151.941406 125.691406 161.585938 C 125.808594 162.0625 125.929688 162.539062 126.167969 163.015625 C 124.738281 161.230469 123.664062 159.085938 123.070312 156.824219 C 120.445312 147.179688 126.046875 137.296875 135.582031 134.675781 C 140.589844 133.246094 145.59375 134.082031 149.648438 136.582031 C 151.433594 133.722656 154.296875 131.460938 157.871094 130.390625 C 165.140625 128.367188 172.648438 132.414062 175.035156 139.558594 Z M 175.035156 139.558594 " fill-opacity="1" fill-rule="nonzero"/><path stroke-linecap="round" transform="matrix(1.191839, 0, 0, 1.190773, -100.996656, -111.337235)" fill="none" stroke-linejoin="round" d="M 230.300436 235.598528 C 225.600504 236.90086 220.798969 234.201063 219.50108 229.500202 C 219.19955 228.401257 219.101225 227.200619 219.19955 226.098393 C 218.39984 225.99998 217.698456 225.901567 216.898746 225.701461 C 215.499255 229.998828 212.300416 233.600744 208.000339 235.201595 C 208.400194 239.40055 205.801138 243.399398 201.599385 244.600037 C 196.899452 245.899088 192.101195 243.199292 190.800028 238.498431 C 190.098644 236.100434 190.498499 233.699157 191.70134 231.701373 C 190.000319 229.900415 188.699152 227.699245 188.001045 225.199554 C 185.798566 217.100165 190.498499 208.800668 198.498872 206.599498 C 202.700624 205.398859 206.899099 206.100872 210.301143 208.200349 C 211.798959 205.799072 214.201365 203.899701 217.200276 203.000862 C 223.499628 201.301598 229.998907 204.900233 231.699928 211.198665 C 232.401313 213.898462 232.201385 216.601539 231.198471 218.999535 C 233.699202 220.000068 235.600151 222.099545 236.39986 224.799342 C 237.701027 229.500202 235.000369 234.299476 230.300436 235.598528 Z M 230.300436 235.598528 " stroke="#112544" stroke-width="1.5" stroke-opacity="1" stroke-miterlimit="10"/><path fill="#fcbba4" d="M 180.875 170.757812 C 179.917969 172.1875 178.371094 173.019531 176.703125 172.898438 C 178.609375 182.785156 172.648438 192.546875 162.757812 195.285156 C 161.089844 195.761719 159.421875 196 157.75 196 L 157.632812 196 L 157.035156 197.90625 L 156.082031 201.242188 L 155.605469 202.667969 C 153.9375 208.265625 148.097656 211.601562 142.375 209.933594 C 139.515625 209.101562 137.371094 207.195312 135.941406 204.8125 C 134.628906 202.429688 134.273438 199.574219 135.105469 196.714844 L 137.609375 187.902344 L 138.207031 186 L 139.039062 183.261719 C 137.730469 184.09375 136.058594 184.210938 134.628906 183.5 C 132.367188 182.308594 131.410156 179.570312 132.484375 177.1875 C 133.320312 175.519531 134.988281 174.566406 136.773438 174.566406 L 136.296875 172.898438 C 135.941406 171.710938 135.703125 170.398438 135.703125 169.207031 C 138.683594 170.042969 142.019531 170.042969 145.238281 169.207031 C 151.316406 167.542969 155.84375 162.898438 157.632812 157.300781 C 160.136719 158.015625 162.757812 158.132812 165.378906 157.421875 C 167.046875 156.945312 168.597656 156.230469 170.027344 155.15625 C 171.339844 156.707031 172.53125 158.609375 173.246094 160.636719 C 173.484375 161.230469 173.722656 161.945312 173.960938 162.660156 L 174.316406 164.445312 C 175.867188 163.492188 177.894531 163.375 179.441406 164.445312 C 181.589844 165.753906 182.183594 168.613281 180.875 170.757812 Z M 180.875 170.757812 " fill-opacity="1" fill-rule="nonzero"/><path fill="#f2a07c" d="M 157.75 196 L 157.15625 197.90625 L 156.203125 201.242188 C 151.554688 200.050781 149.410156 194.097656 149.410156 194.097656 C 152.625 195.167969 155.488281 195.882812 157.75 196 Z M 157.75 196 " fill-opacity="1" fill-rule="nonzero"/><path fill="#f2a07c" d="M 173.246094 160.636719 C 172.292969 162.183594 170.742188 163.375 169.3125 164.328125 C 166.09375 166.113281 162.28125 166.707031 158.585938 167.066406 C 154.890625 167.421875 151.195312 167.660156 147.738281 169.089844 C 145.59375 169.921875 143.332031 171.589844 143.09375 173.972656 C 142.972656 175.164062 143.449219 176.351562 143.6875 177.664062 C 144.402344 180.757812 143.332031 184.332031 140.945312 186.476562 C 139.992188 187.308594 138.921875 187.902344 137.730469 188.140625 L 138.324219 186.238281 L 139.160156 183.496094 C 137.847656 184.332031 136.179688 184.449219 134.75 183.734375 C 132.484375 182.546875 131.53125 179.804688 132.605469 177.425781 C 133.4375 175.757812 135.105469 174.804688 136.894531 174.804688 L 136.417969 173.136719 C 136.058594 171.949219 135.820312 170.636719 135.820312 169.445312 C 138.800781 170.28125 142.136719 170.28125 145.355469 169.445312 C 151.433594 167.78125 155.964844 163.136719 157.75 157.539062 C 160.253906 158.253906 162.875 158.371094 165.5 157.660156 C 167.167969 157.183594 168.714844 156.46875 170.148438 155.394531 C 171.339844 156.824219 172.410156 158.609375 173.246094 160.636719 Z M 173.246094 160.636719 " fill-opacity="1" fill-rule="nonzero"/><path stroke-linecap="round" transform="matrix(1.191839, 0, 0, 1.190773, -100.996656, -111.337235)" fill="none" stroke-linejoin="round" d="M 236.501463 236.90086 C 235.698476 238.101499 234.400587 238.800231 233.001095 238.698537 C 234.600514 247.001314 229.599052 255.199117 221.300426 257.498701 C 219.900935 257.898913 218.501443 258.09902 217.098674 258.09902 L 216.600494 259.699871 L 215.40093 263.800413 C 214.001438 268.501274 209.101578 271.299483 204.300043 269.898738 C 201.900915 269.200006 200.101568 267.599155 198.898726 265.601371 C 197.800764 263.600306 197.499235 261.199029 198.200619 258.801033 L 200.799675 249.799524 L 201.50106 247.49994 C 200.399821 248.198672 199.000329 248.300366 197.800764 247.700046 C 195.899816 246.699514 195.100106 244.39993 196.001418 242.398866 C 196.699525 241.001402 198.099017 240.200976 199.600111 240.200976 L 199.200256 238.800231 C 198.898726 237.799699 198.698799 236.700753 198.698799 235.700221 C 201.19953 236.398954 203.998514 236.398954 206.699172 235.700221 C 211.798959 234.299476 215.600857 230.399041 217.098674 225.701461 C 219.19955 226.2985 221.398751 226.400193 223.60123 225.799874 C 225.000722 225.399661 226.298611 224.799342 227.501453 223.900503 C 228.99927 225.701461 230.100509 227.699245 230.798616 230.100522 L 231.100146 231.59968 C 232.401313 230.799254 234.099057 230.700841 235.400224 231.59968 C 237.101245 232.698625 237.599425 235.099902 236.501463 236.90086 Z M 236.501463 236.90086 " stroke="#112544" stroke-width="1.5" stroke-opacity="1" stroke-miterlimit="10"/><path stroke-linecap="round" transform="matrix(1.191839, 0, 0, 1.190773, -100.996656, -111.337235)" fill="none" stroke-linejoin="round" d="M 236.501463 236.90086 C 235.698476 238.101499 234.400587 238.800231 233.001095 238.698537 C 234.600514 247.001314 229.599052 255.199117 221.300426 257.498701 C 219.900935 257.898913 218.501443 258.09902 217.098674 258.09902 L 216.600494 259.699871 L 215.40093 263.800413 C 214.001438 268.501274 209.101578 271.299483 204.300043 269.898738 C 201.900915 269.200006 200.101568 267.599155 198.898726 265.601371 C 197.800764 263.600306 197.499235 261.199029 198.200619 258.801033 L 200.799675 249.799524 L 201.50106 247.49994 C 200.399821 248.198672 199.000329 248.300366 197.800764 247.700046 C 195.899816 246.699514 195.100106 244.39993 196.001418 242.398866 C 196.699525 241.001402 198.099017 240.200976 199.600111 240.200976 L 199.200256 238.800231 C 198.898726 237.799699 198.698799 236.700753 198.698799 235.700221 C 201.19953 236.398954 203.998514 236.398954 206.699172 235.700221 C 211.798959 234.299476 215.600857 230.399041 217.098674 225.701461 C 219.19955 226.2985 221.398751 226.400193 223.60123 225.799874 C 225.000722 225.399661 226.298611 224.799342 227.501453 223.900503 C 228.99927 225.701461 230.100509 227.699245 230.798616 230.100522 L 231.100146 231.59968 C 232.401313 230.799254 234.099057 230.700841 235.400224 231.59968 C 237.101245 232.698625 237.599425 235.099902 236.501463 236.90086 Z M 236.501463 236.90086 " stroke="#112544" stroke-width="1.5" stroke-opacity="1" stroke-miterlimit="10"/><path stroke-linecap="round" transform="matrix(1.191839, 0, 0, 1.190773, -100.996656, -111.337235)" fill="none" stroke-linejoin="round" d="M 217.098674 258.09902 C 214.201365 258.09902 211.399104 257.400288 208.898373 255.999543 " stroke="#112544" stroke-width="1.5" stroke-opacity="1" stroke-miterlimit="10"/><path stroke-linecap="round" transform="matrix(1.191839, 0, 0, 1.190773, -100.996656, -111.337235)" fill="none" stroke-linejoin="round" d="M 217.000349 225.701461 C 214.29969 224.901035 211.900562 223.100077 210.399467 220.6988 " stroke="#112544" stroke-width="1.5" stroke-opacity="1" stroke-miterlimit="10"/><path fill="#112544" d="M 168.953125 169.445312 C 169.191406 170.28125 168.714844 170.996094 167.882812 171.234375 C 167.046875 171.472656 166.214844 170.996094 166.09375 170.28125 C 165.855469 169.445312 166.332031 168.613281 167.167969 168.496094 C 168 168.375 168.714844 168.613281 168.953125 169.445312 Z M 168.953125 169.445312 " fill-opacity="1" fill-rule="nonzero"/><path fill="#112544" d="M 168.953125 163.851562 C 169.191406 164.566406 167.285156 165.515625 165.5 165.992188 C 163.710938 166.46875 161.207031 166.945312 161.089844 166.230469 C 160.851562 165.515625 163.113281 164.089844 164.785156 163.613281 C 166.570312 163.136719 168.714844 163.253906 168.953125 163.851562 Z M 168.953125 163.851562 " fill-opacity="1" fill-rule="nonzero"/><path fill="#112544" d="M 154.175781 168.375 C 154.414062 169.089844 152.507812 170.042969 150.71875 170.519531 C 148.933594 170.996094 146.429688 171.472656 146.308594 170.757812 C 146.070312 170.042969 148.335938 168.613281 150.003906 168.136719 C 151.671875 167.660156 153.9375 167.660156 154.175781 168.375 Z M 154.175781 168.375 " fill-opacity="1" fill-rule="nonzero"/><path fill="#112544" d="M 153.101562 174.328125 C 153.339844 175.164062 152.863281 175.878906 152.03125 176.117188 C 151.195312 176.351562 150.363281 175.878906 150.242188 175.164062 C 150.003906 174.328125 150.480469 173.496094 151.316406 173.375 C 152.03125 173.136719 152.984375 173.613281 153.101562 174.328125 Z M 153.101562 174.328125 " fill-opacity="1" fill-rule="nonzero"/><path stroke-linecap="round" transform="matrix(1.191839, 0, 0, 1.190773, -100.996656, -111.337235)" fill="none" stroke-linejoin="round" d="M 218.501443 236.999273 C 218.501443 236.999273 223.201375 242.50056 221.598679 242.398866 C 221.100499 242.398866 219.599405 242.598973 219.599405 242.598973 " stroke="#112544" stroke-width="1.5" stroke-opacity="1" stroke-miterlimit="10"/><path stroke-linecap="round" transform="matrix(1.191839, 0, 0, 1.190773, -100.996656, -111.337235)" fill="none" stroke-linejoin="round" d="M 233.201022 234.801383 L 234.000732 234.601276 " stroke="#112544" stroke-width="1.5" stroke-opacity="1" stroke-miterlimit="10"/><path stroke-linecap="round" transform="matrix(1.191839, 0, 0, 1.190773, -100.996656, -111.337235)" fill="none" stroke-linejoin="round" d="M 198.099017 244.501624 L 198.898726 244.301517 " stroke="#112544" stroke-width="1.5" stroke-opacity="1" stroke-miterlimit="10"/><path fill="#112544" d="M 156.796875 182.070312 C 156.796875 182.308594 157.394531 186.476562 159.660156 188.855469 C 160.375 189.691406 161.445312 190.285156 162.636719 190.523438 C 162.757812 190.523438 162.875 190.523438 162.996094 190.523438 C 164.546875 190.523438 165.738281 189.453125 166.691406 188.140625 C 168.476562 185.523438 169.191406 181.832031 169.191406 181.472656 C 169.191406 181.355469 169.191406 181.234375 169.074219 181.234375 C 168.953125 181.234375 168.835938 181.234375 168.835938 181.234375 C 168.835938 181.234375 168.238281 181.59375 167.167969 181.949219 C 165.5 182.546875 162.519531 183.023438 158.945312 182.308594 C 158.347656 182.1875 157.75 182.070312 157.273438 181.832031 C 157.15625 181.832031 157.035156 181.832031 157.035156 181.832031 C 156.796875 181.949219 156.796875 181.949219 156.796875 182.070312 Z M 156.796875 182.070312 " fill-opacity="1" fill-rule="nonzero"/><path fill="#fc6054" d="M 160.613281 188.261719 C 161.207031 188.855469 161.921875 189.332031 162.757812 189.453125 C 162.875 189.453125 162.996094 189.453125 162.996094 189.453125 C 164.1875 189.453125 165.023438 188.738281 165.738281 187.664062 C 165.140625 187.070312 164.425781 186.59375 163.589844 186.476562 C 163.472656 186.476562 163.351562 186.476562 163.351562 186.476562 C 162.160156 186.476562 161.207031 187.1875 160.613281 188.261719 Z M 160.613281 188.261719 " fill-opacity="1" fill-rule="nonzero"/><path fill="#ffffff" d="M 158.945312 182.1875 C 159.539062 183.855469 161.089844 184.925781 162.996094 184.925781 C 164.902344 184.925781 166.570312 183.617188 167.167969 181.832031 C 165.378906 182.425781 162.519531 183.023438 158.945312 182.1875 Z M 158.945312 182.1875 " fill-opacity="1" fill-rule="nonzero"/><path stroke-linecap="round" transform="matrix(1.191839, 0, 0, 1.190773, -100.996656, -111.337235)" fill="none" stroke-linejoin="round" d="M 237.101245 311.7013 L 237.101245 303.900429 " stroke="#112544" stroke-width="1.5" stroke-opacity="1" stroke-miterlimit="10"/><path fill="#fcbba4" d="M 204.710938 305.195312 C 207.808594 306.980469 210.191406 308.648438 210.667969 310.554688 C 211.382812 313.410156 206.378906 310.433594 202.445312 309.125 C 204.949219 310.671875 206.617188 311.863281 207.09375 313.410156 C 207.929688 316.386719 202.683594 313.53125 198.632812 312.101562 C 200.65625 313.410156 202.566406 313.410156 202.921875 314.839844 C 203.875 318.292969 193.03125 315.554688 188.261719 314.246094 C 186.832031 313.886719 186 313.53125 186 313.53125 L 143.449219 308.886719 C 138.800781 308.410156 134.273438 307.578125 129.742188 306.265625 C 120.683594 303.648438 112.34375 299.480469 105.429688 293.523438 C 98.753906 287.808594 93.511719 280.546875 90.414062 271.613281 C 90.292969 271.378906 90.175781 271.019531 90.175781 270.78125 C 87.550781 262.566406 86.597656 253.992188 87.671875 245.417969 C 87.789062 244.109375 88.027344 243.035156 88.265625 242.085938 L 115.800781 238.394531 L 118.300781 250.179688 C 121.996094 267.804688 135.34375 281.738281 152.746094 286.144531 L 188.859375 295.3125 C 188.859375 295.3125 196.605469 288.882812 199.109375 291.261719 C 200.777344 292.929688 196.488281 297.691406 196.488281 297.691406 C 196.488281 297.691406 210.429688 301.503906 211.621094 306.027344 C 212.097656 308.527344 208.285156 306.265625 204.710938 305.195312 Z M 204.710938 305.195312 " fill-opacity="1" fill-rule="nonzero"/><path fill="#f2a07c" d="M 188.5 313.410156 C 188.5 313.769531 188.382812 314.007812 188.144531 314.246094 C 186.714844 313.886719 185.878906 313.53125 185.878906 313.53125 L 143.332031 308.886719 C 138.683594 308.410156 134.152344 307.578125 129.625 306.265625 C 120.566406 303.648438 112.222656 299.480469 105.3125 293.527344 C 98.636719 287.808594 93.390625 280.546875 90.292969 271.617188 C 90.652344 268.996094 91.960938 266.734375 94.941406 266.257812 C 98.753906 265.660156 99.230469 270.664062 99.828125 273.28125 C 101.734375 281.140625 106.265625 288.40625 112.582031 293.527344 C 116.15625 296.382812 120.207031 298.644531 124.617188 299.957031 C 134.152344 302.695312 144.285156 301.382812 154.175781 301.980469 C 165.261719 302.574219 176.105469 305.550781 186 310.554688 C 187.429688 311.03125 188.738281 312.101562 188.5 313.410156 Z M 188.5 313.410156 " fill-opacity="1" fill-rule="nonzero"/><path stroke-linecap="round" transform="matrix(1.191839, 0, 0, 1.190773, -100.996656, -111.337235)" fill="none" stroke-linejoin="round" d="M 181.800018 293.701562 L 183.900895 303.59863 C 187.001408 318.399945 198.200619 330.10125 212.798596 333.801579 L 243.099067 341.500756 C 243.099067 341.500756 249.601623 336.101163 251.699222 338.098946 C 253.098714 339.499691 249.500021 343.49854 249.500021 343.49854 C 249.500021 343.49854 261.200689 346.700242 262.200326 350.498984 C 262.800108 352.598462 259.60127 350.699091 256.599082 349.800252 C 259.201415 351.29941 261.200689 352.700155 261.600544 354.301006 C 262.200326 356.699003 257.998573 354.199313 254.70141 353.100368 C 256.799009 354.399419 258.198501 355.399952 258.601633 356.699003 C 259.29974 359.198693 254.901338 356.800697 251.499295 355.600058 C 253.200316 356.699003 254.799735 356.699003 255.101265 357.899642 C 256.100902 361.698383 240.899865 356.800697 240.899865 356.800697 L 205.201355 352.900261 C 201.301133 352.500049 197.499235 351.801316 193.700614 350.699091 C 186.100096 348.5012 179.09936 345.000978 173.301466 340.001598 C 167.500294 335.10063 163.098614 328.798918 160.499558 320.899635 C 158.300356 314.000883 157.500647 306.800332 158.398681 299.599781 C 158.500284 298.500836 158.700211 297.598717 158.900139 296.801572 " stroke="#112544" stroke-width="1.5" stroke-opacity="1" stroke-miterlimit="10"/><path stroke-linecap="round" transform="matrix(1.191839, 0, 0, 1.190773, -100.996656, -111.337235)" fill-opacity="1" fill="#8d95ff" fill-rule="nonzero" stroke-linejoin="round" d="M 158.798536 296.801572 C 158.598609 297.598717 158.500284 298.500836 158.300356 299.599781 C 157.399044 306.800332 158.198754 314.000883 160.401233 320.899635 C 160.899413 322.598899 161.600797 324.199751 162.298904 325.698909 C 171.898696 318.698464 183.301113 318.101425 197.09938 325.698909 C 190.498499 320.099209 185.798566 312.400032 183.99922 303.59863 L 181.901621 293.701562 " stroke="#112544" stroke-width="1.5" stroke-opacity="1" stroke-miterlimit="10"/><path stroke-linecap="round" transform="matrix(1.191839, 0, 0, 1.190773, -100.996656, -111.337235)" fill-opacity="1" fill="#fcbba4" fill-rule="nonzero" stroke-linejoin="round" d="M 285.198531 355.101432 C 282.599475 357.601122 275.398811 360.799545 272.70143 358.598374 C 271.298661 357.499429 266.798656 350.098771 269.40099 349.498452 C 270.600554 349.301626 271.698516 351.099304 272.901358 352.598462 C 271.498588 349.498452 269.40099 346.700242 270.898806 345.801404 C 272.000046 345.201084 273.599465 347.500668 274.998956 349.301626 C 273.599465 346.30003 271.600191 343.298433 272.799755 342.999914 C 274.300849 342.599701 276.198521 344.899285 277.801217 347.198868 C 276.699978 344.499072 275.100559 342.101075 276.398448 341.500756 C 279.000782 340.300117 283.100932 350.800784 283.100932 350.800784 C 283.100932 350.800784 286.499698 346.998762 287.899189 348.199401 C 290.000066 350.000358 286.801227 353.598994 285.198531 355.101432 Z M 285.198531 355.101432 " stroke="#112544" stroke-width="1.5" stroke-opacity="1" stroke-miterlimit="10"/><g clip-path="url(#f8ec741df0)"><path fill="#8d95ff" d="M 314.597656 609.914062 L 503.386719 609.914062 C 510.773438 597.886719 532.824219 559.664062 522.8125 547.992188 C 510.894531 534.0625 478.953125 570.023438 478.953125 570.023438 C 478.953125 570.023438 503.625 519.890625 485.984375 510.128906 C 465.246094 498.816406 437.117188 532.988281 437.117188 532.988281 C 437.117188 532.988281 446.773438 454.636719 416.5 455.230469 C 387.777344 455.707031 382.890625 539.894531 382.890625 539.894531 C 382.890625 539.894531 343.796875 435.347656 317.101562 445.707031 C 288.140625 457.019531 333.90625 569.070312 333.90625 569.070312 C 333.90625 569.070312 295.765625 514.054688 275.863281 530.371094 C 251.90625 550.019531 303.632812 599.792969 314.597656 609.914062 Z M 314.597656 609.914062 " fill-opacity="1" fill-rule="nonzero"/></g><path fill="#757bff" d="M 449.753906 520.488281 C 449.632812 533.703125 448.320312 544.0625 448.320312 544.0625 C 448.320312 544.0625 472.039062 515.128906 491.941406 519.296875 C 491.226562 515.128906 489.320312 511.914062 485.984375 510.125 C 474.066406 503.695312 459.761719 512.152344 449.753906 520.488281 Z M 449.753906 520.488281 " fill-opacity="1" fill-rule="nonzero"/><path fill="#757bff" d="M 384.082031 526.917969 C 390.160156 540.730469 393.972656 550.96875 393.972656 550.96875 C 393.972656 550.96875 398.859375 466.78125 427.582031 466.304688 C 429.371094 466.304688 430.921875 466.542969 432.46875 467.019531 C 429.132812 459.875 424.007812 455.113281 416.5 455.230469 C 394.925781 455.589844 386.824219 503.339844 384.082031 526.917969 Z M 384.082031 526.917969 " fill-opacity="1" fill-rule="nonzero"/><path fill="#757bff" d="M 331.640625 563.472656 C 339.148438 572.046875 344.511719 579.550781 344.988281 580.261719 C 343.917969 577.644531 299.582031 468.09375 328.183594 456.898438 C 332.476562 455.230469 337.003906 456.542969 341.773438 459.757812 C 333.308594 449.160156 324.726562 442.730469 317.101562 445.707031 C 292.070312 455.46875 322.820312 540.492188 331.640625 563.472656 Z M 331.640625 563.472656 " fill-opacity="1" fill-rule="nonzero"/><g clip-path="url(#12c1038bba)"><path fill="#757bff" d="M 312.09375 607.414062 C 293.980469 588.242188 268.832031 556.328125 286.945312 541.445312 C 295.765625 534.300781 308.160156 540.96875 319.246094 550.730469 C 306.375 536.441406 287.78125 520.605469 275.863281 530.371094 C 253.457031 548.707031 297.316406 593.601562 312.09375 607.414062 Z M 312.09375 607.414062 " fill-opacity="1" fill-rule="nonzero"/></g><g clip-path="url(#72f8ff1421)"><path stroke-linecap="round" transform="matrix(1.191839, 0, 0, 1.190773, -100.996656, -111.337235)" fill="none" stroke-linejoin="round" d="M 348.700058 605.700292 L 507.101545 605.700292 C 513.299294 595.599838 531.800771 563.500798 523.400543 553.698863 C 513.400896 542.000838 486.600794 572.200507 486.600794 572.200507 C 486.600794 572.200507 507.301472 530.099426 492.50029 521.901624 C 475.100052 512.401489 451.498788 541.098719 451.498788 541.098719 C 451.498788 541.098719 459.600764 475.299788 434.200153 475.798414 C 410.100709 476.198627 406.000558 546.898525 406.000558 546.898525 C 406.000558 546.898525 373.199357 459.101009 350.800934 467.800718 C 326.501563 477.300853 364.900731 571.400081 364.900731 571.400081 C 364.900731 571.400081 332.899239 525.198459 316.200386 538.900829 C 296.09949 555.401408 339.500121 597.200689 348.700058 605.700292 Z M 348.700058 605.700292 " stroke="#112544" stroke-width="1.5" stroke-opacity="1" stroke-miterlimit="10"/></g><g clip-path="url(#f6fcec0840)"><path fill="#b9c3fc" d="M 353.09375 609.914062 L 454.398438 609.914062 C 458.332031 603.484375 470.25 583.003906 464.886719 576.691406 C 458.453125 569.1875 441.289062 588.597656 441.289062 588.597656 C 441.289062 588.597656 454.519531 561.6875 444.984375 556.449219 C 433.78125 550.375 418.765625 568.714844 418.765625 568.714844 C 418.765625 568.714844 423.890625 526.679688 407.679688 526.917969 C 392.304688 527.15625 389.683594 572.40625 389.683594 572.40625 C 389.683594 572.40625 368.707031 516.320312 354.40625 521.914062 C 338.792969 527.988281 363.464844 588.121094 363.464844 588.121094 C 363.464844 588.121094 342.964844 558.589844 332.238281 567.402344 C 319.363281 577.761719 347.136719 604.4375 353.09375 609.914062 Z M 353.09375 609.914062 " fill-opacity="1" fill-rule="nonzero"/></g><path fill="#e1e5ff" d="M 418.765625 583.242188 C 418.765625 583.242188 433.78125 564.902344 444.984375 570.976562 C 445.820312 571.453125 446.535156 572.167969 447.128906 573 C 448.917969 566.09375 449.515625 558.949219 444.984375 556.449219 C 435.332031 551.207031 422.816406 564.1875 419.597656 567.761719 C 419.71875 576.097656 418.765625 583.242188 418.765625 583.242188 Z M 418.765625 583.242188 " fill-opacity="1" fill-rule="nonzero"/><path fill="#e1e5ff" d="M 389.683594 586.8125 C 389.683594 586.8125 392.304688 541.683594 407.679688 541.324219 C 415.785156 541.207031 418.527344 551.566406 419.359375 562.042969 C 420.074219 550.257812 419.957031 526.558594 407.679688 526.796875 C 392.304688 527.035156 389.683594 572.285156 389.683594 572.285156 C 389.683594 572.285156 368.707031 516.082031 354.40625 521.796875 C 349.160156 523.820312 348.445312 532.15625 349.875 542.277344 C 350.589844 539.421875 352.019531 537.277344 354.40625 536.324219 C 368.707031 530.726562 389.683594 586.8125 389.683594 586.8125 Z M 389.683594 586.8125 " fill-opacity="1" fill-rule="nonzero"/><path fill="#e1e5ff" d="M 331.046875 582.882812 C 331.402344 582.527344 331.761719 582.167969 332.117188 581.8125 C 342.605469 573.238281 362.507812 601.460938 363.226562 602.53125 C 362.984375 601.933594 358.339844 590.386719 354.40625 577.167969 C 347.492188 569.785156 338.195312 562.164062 332 567.285156 C 327.589844 570.976562 328.183594 576.691406 331.046875 582.882812 Z M 331.046875 582.882812 " fill-opacity="1" fill-rule="nonzero"/><g clip-path="url(#36bdd10b69)"><path stroke-linecap="round" transform="matrix(1.191839, 0, 0, 1.190773, -100.996656, -111.337235)" fill="none" stroke-linejoin="round" d="M 380.999802 605.700292 L 465.99844 605.700292 C 469.298881 600.300699 479.298528 583.101387 474.798523 577.800207 C 469.400483 571.498494 454.999156 587.798967 454.999156 587.798967 C 454.999156 587.798967 466.100043 565.200062 458.099669 560.801001 C 448.699805 555.699928 436.101102 571.101562 436.101102 571.101562 C 436.101102 571.101562 440.401179 535.800819 426.799562 536.000926 C 413.899329 536.201032 411.700128 574.201571 411.700128 574.201571 C 411.700128 574.201571 394.099963 527.10111 382.101042 531.798691 C 369.000882 536.899765 389.70156 587.398755 389.70156 587.398755 C 389.70156 587.398755 372.50125 562.598679 363.50124 569.999336 C 352.698606 578.699045 376.001618 601.101124 380.999802 605.700292 Z M 380.999802 605.700292 " stroke="#112544" stroke-width="1.5" stroke-opacity="1" stroke-miterlimit="10"/></g></svg>